<svg xmlns="http://www.w3.org/2000/svg" version="1.1" width="600px" height="600px" viewBox="0 0 200 200" style="overflow:hidden!important;"><g id="svga-group-wrapper"><g id="svga-group-backs-single"><path id="SvgjsPath15932" d="M0 0h200v200H0V0z" fill="#ecf0f1" stroke-width="none" opacity="1"></path><path id="SvgjsPath15933" d="m156.3 131.2-16.8-.4-17 .6c-.7 0-8.8-.3-9.4-.2-9.8 1.2-14.9.6-20.8 0l-10.9-.1c-1.5 0-3.5-1.6-3.5-3.6l.1-5.6c1-5.5-.2-9.4-.2-14.7l.2-3.6c0-1.5 2.3-2.3 5.1-2.4l7.5.2c3.7-.1 9.6.8 12 .3l11-.5c3.8-.2 10.8-.8 20.5-.5 0 0 10.3 0 19.3.2l5.6-.1c1.5 0 3.2 1.2 3.2 2.7v5c-.1 3.3.1 5.9.1 10.1l.2 5.5-.4 3.4c-.1 2.5-3.8 4.1-5.8 3.7zm-43.4-33.4-16.8-.4-17 .6c-.7 0-8.8-.3-9.4-.2-9.8 1.2-14.9.6-20.8 0L38 97.7c-1.5 0-3.5-1.6-3.5-3.6v-5.6c1-5.5-.2-9.4-.2-14.7l.2-3.6c0-1.5 2.3-2.3 5.1-2.4l7.5.2c3.7-.1 9.6.8 12 .3l11-.5c3.8-.2 10.8-.8 20.5-.5 0 0 10.3 0 19.3.2l5.6-.1c1.5 0 3.2 1.2 3.2 2.7v5c-.1 3.3.1 5.9.1 10.1l.2 5.5-.4 3.4c0 2.5-3.6 4.1-5.7 3.7zm43.4-32.4-16.8-.4-17 .6c-.7 0-8.8-.3-9.4-.2-9.8 1.2-14.9.6-20.8 0l-10.9-.1c-1.5 0-3.5-1.6-3.5-3.6l.1-5.6c1-5.5-.2-9.4-.2-14.7l.2-3.6c0-1.5 2.3-2.3 5.1-2.4l7.5.2c3.7-.1 9.6.8 12 .3l11-.5c3.8-.2 10.8-.8 20.5-.5 0 0 10.3 0 19.3.2l5.6-.1c1.5 0 3.2 1.2 3.2 2.7v5c-.1 3.3.1 5.9.1 10.1l.2 5.5-.3 3.4c-.2 2.5-3.9 4.1-5.9 3.7zm-43.4-33.3-16.8-.4-17 .6c-.7 0-8.8-.3-9.4-.2-9.8 1.2-14.9.6-20.8 0L38 32c-1.5 0-3.5-1.6-3.5-3.6v-5.6c1-5.5-.2-9.4-.2-14.7l.2-3.6c0-1.5 2.3-2.3 5.1-2.4l7.5.2c3.7-.1 9.6.8 12 .3l11-.5c3.8-.2 10.8-.8 20.5-.5 0 0 10.3 0 19.3.2l5.6-.1c1.5 0 3.2 1.2 3.2 2.7v5c-.1 3.3.1 5.9.1 10.1l.2 5.5-.4 3.4c0 2.5-3.6 4-5.7 3.7zm43.4 166.2-16.8-.4-17 .6c-.7 0-8.8-.3-9.4-.2-9.8 1.2-14.9.6-20.8 0l-10.9-.1c-1.5 0-3.5-1.6-3.5-3.6l.1-5.6c1-5.5-.2-9.4-.2-14.7l.2-3.6c0-1.5 2.3-2.3 5.1-2.4l7.5.2c3.7-.1 9.6.8 12 .3l11-.5c3.8-.2 10.8-.8 20.5-.5 0 0 10.3 0 19.3.2l5.6-.1c1.5 0 3.2 1.2 3.2 2.7v5c-.1 3.3.1 5.9.1 10.1l.2 5.5-.4 3.4c-.1 2.5-3.8 4.1-5.8 3.7zM112.9 165l-16.8-.4-17 .6c-.7 0-8.8-.3-9.4-.2-9.8 1.2-14.9.6-20.8 0l-10.9-.1c-1.5 0-3.5-1.6-3.5-3.6v-5.6c1-5.5-.2-9.4-.2-14.7l.2-3.6c0-1.5 2.3-2.3 5.1-2.4l7.5.2c3.7-.1 9.6.8 12 .3l11-.4c3.8-.2 10.8-.8 20.5-.5 0 0 10.3 0 19.3.2l5.6-.1c1.5 0 3.2 1.2 3.2 2.7v5c-.1 3.3.1 5.9.1 10.1l.2 5.5-.4 3.4c0 2.4-3.6 4-5.7 3.6zM25.7 97.8c2.1.4 5.7-1.2 5.7-3.7l.4-3.4-.2-5.5c.1-4.2-.1-6.8-.1-10.1v-5c0-1.5-1.8-2.7-3.2-2.7l-5.6.1c-9-.2-19.3-.2-19.3-.2H.1v30.5l8.8-.3 16.8.3zm5.8 39.5c0-1.5-1.8-2.7-3.2-2.7l-5.6.1c-9-.2-19.3-.2-19.3-.2-1.2 0-2.2-.1-3.3-.1v30.5l8.8-.3 16.8.4c2.1.4 5.7-1.2 5.7-3.7l.4-3.4-.2-5.5c.1-4.2-.1-6.8-.1-10.1v-5zM14.9 35.9c-2.4.4-8.3-.4-12-.3L0 35.5v29.9l4.6.1c5.9.6 11 1.2 20.8 0 .7-.1 8.8.2 9.5.2l17-.6 16.8.4c2.1.4 5.7-1.2 5.7-3.7l.4-3.4-.2-5.5c.1-4.2-.1-6.8-.1-10.1v-5c0-1.5-1.8-2.7-3.2-2.7l-5.6.1c-9-.2-19.3-.2-19.3-.2-9.7-.3-16.7.3-20.5.5l-11 .4zm59.6 72.6v-5c0-1.5-1.8-2.7-3.2-2.7l-5.6.1c-9-.2-19.3-.2-19.3-.2-9.7-.3-16.7.3-20.5.5l-11 .5c-2.4.4-8.3-.4-12-.3l-2.9-.1v29.9l4.6.1c5.9.6 11 1.2 20.8 0 .7-.1 8.8.2 9.5.2l17-.6 16.8.4c2.1.4 5.7-1.2 5.7-3.7l.4-3.4-.2-5.5c0-4.2-.2-6.8-.1-10.2zm0 67.2v-5c0-1.5-1.8-2.7-3.2-2.7l-5.6.1c-9-.2-19.3-.2-19.3-.2-9.7-.3-16.7.3-20.5.5l-11 .5c-2.4.4-8.3-.4-12-.3l-2.9-.2v29.9l4.6.1c5.9.6 11 1.2 20.8 0 .7-.1 8.8.2 9.5.2l17-.6 16.8.4c2.1.4 5.7-1.2 5.7-3.7l.4-3.4-.2-5.5c0-4.2-.2-6.8-.1-10.1zM0 32l8.8-.3 16.8.4c2.1.4 5.7-1.2 5.7-3.7l.4-3.4-.2-5.5c.1-4.2-.1-6.8-.1-10.1v-5c0-1.5-1.8-2.7-3.2-2.7l-5.6.1c-9-.2-19.3-.2-19.3-.2-1.1 0-2.2-.1-3.3-.1V32zm169.4 33.3 10.9.1c5.7.6 10.4.6 19.7-.5V35.4l-9-.4c-2.4.4-7.8-.1-11.5 0l-8.4.4c-2.8 0-5.1.9-5.1 2.4l-.2 3.6c0 5.3-1 10.2.2 14.7l-.1 5.6c0 2 2 3.6 3.5 3.6zm0 65.8 10.9.1c5.7.6 10.4.5 19.7-.6v-29.5l-9.1-.4c-2.4.4-7.8-.1-11.5 0l-8.4.4c-2.8.1-5.1.9-5.1 2.4l-.2 3.6c0 5.3-1 10.2.2 14.7l-.1 5.6c.1 2 2.1 3.7 3.6 3.7zM122.1 22.7l-.1 5.6c0 2 2 3.6 3.5 3.6l10.9.1c5.9.6 11 1.2 20.8 0 .7-.1 8.8.2 9.4.2l17-.6 16.4.4V1.8h-2.6c-9-.2-19.3-.2-19.3-.2-9.7-.3-16.7.3-20.5.5l-11 .5c-2.4.4-8.3-.4-12-.3l-7.5-.3c-2.8 0-5.1.9-5.1 2.4l-.1 3.6c0 5.4 1.2 9.2.2 14.7zm0 65.8-.1 5.6c0 2 2 3.6 3.5 3.6l10.9.1c5.9.6 11 1.2 20.8 0 .7-.1 8.8.2 9.4.2l17-.6 16.4.3V67.5l-2.6.1c-9-.2-19.3-.2-19.3-.2-9.7-.3-16.7.3-20.5.5l-11 .5c-2.4.4-8.3-.4-12-.3l-7.5-.2c-2.8.1-5.1.9-5.1 2.4l-.2 3.6c.1 5.2 1.3 9.1.3 14.6zm77.9 79.8-9.1-.4c-2.4.4-7.8-.1-11.5 0l-8.4.4c-2.8.1-5.1.9-5.1 2.4l-.2 3.6c0 5.3-1 10.2.2 14.7l-.1 5.6c0 2 2 3.6 3.5 3.6l10.9.1c5.7.6 10.4.5 19.7-.6l.1-29.4zm-16.4-3.7 16.4.4v-30.3l-2.6.1c-9-.2-19.3-.2-19.3-.2-9.7-.3-16.7.3-20.5.5l-11 .5c-2.4.4-8.3-.4-12-.3l-7.5-.2c-2.8.1-5.1.9-5.1 2.4l-.2 3.6c0 5.3 1.2 9.2.2 14.7l-.1 5.6c0 2 2 3.6 3.5 3.6l10.9.1c5.9.6 11 1.2 20.8 0 .7-.1 8.8.2 9.4.2l17.1-.7z" fill="#c6dce2" stroke-width="none" opacity="1"></path><path id="SvgjsPath15934" d="M34.5 22.7v5.6c0 2 2 3.6 3.5 3.6l10.9.1c5.9.6 11 1.2 20.8 0 .7-.1 8.8.2 9.4.2l17-.6 16.8.4c1.3.2 3.3-.3 4.5-1.4-.8 0-1.7-.3-2.6-.3-1.4 0-6.2-1.1-9.3-1.6-1.3-1.2-2.9-2-4.7-1.7-1.3.2-2.3.8-3.8 1-2.1.3-4.2-.1-6.3-.5-2.2-.4-4.2-.8-6.4-.8-.1 0-.1.1 0 .1 4.1.2 7.9 1.8 11.9 1.9 1.4 0 2.7-.5 4-.5.9 0 1.6.1 2.3.3-6.4 0-22.2.9-24.5 1.6-2.7.7-12.6.7-15.9-.7-3.4-1.5-20.3 0-21.7-.2-1.5-.2-1.7-2.7-1-7 .2-1.2.2-2.6.1-4.2.5.2.9.3 1.4.3 1.4 0 3-.9 4.2-1.5 2.2-1.1 4.4-2.2 6.5-3.5.1-.1 0-.2-.1-.2-2.5 1.3-5 2.4-7.7 3.2-1.3.4-2.7 1.1-4.1.5-.1 0-.2-.1-.3-.1-.3-4.1-1.2-8.7-1.5-10.9-.1-.7-.1-1.4 0-2 3.9-1.4 8.2 1 12.1 1.5 3.2.4 6.3.1 9.5-.4.2 0 .1-.3 0-.3-2.5.2-5 .4-7.6.1-2.7-.3-5.2-1.3-7.8-1.8-2-.4-3.9-.7-5.7 0 .1-.3.2-.6.3-.8-2.4.2-4.2 1-4.2 2.3L34.3 8c0 5.4 1.2 9.2.2 14.7zm71.2 39.6c-1.9-1-8.3.3-10.8 1-2.3.6-8.8-.6-11.6-1.8 2.3-.1 4.6-.5 6.4-1.7.1-.1.1-.4-.1-.4-2.6.3-4.9 1.1-7.5 1.3-1.5-1.7-1.2-7.2-.9-9.9.3-2.9-1.3-7.3-1.6-10.5-.2-1.8-.1-3.3.1-4.4-1.1.4-1.8 1-1.8 1.8l-.2 3.6c0 5.3 1.2 9.2.2 14.7l-.1 5.6c0 2 2 3.6 3.5 3.6l10.9.1c5.9.6 11 1.2 20.8 0 .7-.1 8.8.2 9.4.2l17-.6 16.8.4c1.5.3 3.8-.5 5-1.9h-.5c-2.2 0-3.5-1-5.4-1.6-.6-.2-2.2-.1-4.1.2-1.7-1.6-4.1-2.3-6.4-2-1.9.2-3.5 1.3-5.4 1.4-2 0-3.4-.7-5.4-.3-.1 0-.1.2 0 .2 2.5 0 4.9 1 7.3.4 3.4-.8 5.6-.9 8.6.4-3.7.6-8.1 1.4-9.6 1.2-2.6-.3-4.1.3-7 .3s-19.8-.3-22-.6c-2.1-.1-3.7.2-5.6-.7zm-1.2 33c-.4-.1-1.3-.1-2.5-.2.1-.5-.1-1.1-.5-1.4-.5-.4-1.6-.7-1.9.1-.1.2 0 .5.3.5s.7-.1 1-.1c.4.1.6.5.5.9-7.1-.1-22.9.5-25.5.5-3.1 0-16.7-.3-24.6.6s-12.5-2.3-13-3.4c-.1-.2-.2-.4-.2-.8 1.4-.4 2.9-.3 4.4-.2 2.1.1 4.2-.5 6.2-.3.8.1 1.4.6 2.2.4 1-.2 2-1.2 2.7-1.8 0 0 0-.1-.1-.1-1.3 1.1-1.8 1.5-3.4 1.2-.3-.1-.5-.5-.8-.5-2.2-.3-4.4.2-6.7-.1-1.7-.2-3.3-.3-4.7.2-.2-2.1-.2-5.2-.2-7.2 0-.4 0-.9-.1-1.4 2.9.4 5.8-2.4 8.7-2 .1 0 .1-.1 0-.2-1.7-.5-3.3.1-4.8.6 0-.1-.1-.2-.2-.2-1.4-.1-2.7 0-4-.3-.4-2.6-1.1-5.6-1.1-7.7 0-1.7-.6-2.8-1.3-3.5-.3.3-.5.7-.5 1.1l-.2 3.6c0 5.3 1.2 9.2.2 14.7v5.6c0 2 2 3.6 3.5 3.6l10.9.1c5.9.6 11 1.2 20.8 0 .7-.1 8.8.2 9.4.2l17-.6 16.8.4c1.6.3 4.1-.6 5.2-2.1-1.1.3-2.7.7-3.7.7-1.5.2-7.2-.4-9.8-.9zm13.8 34.8c-4.4-.3-7.3-.3-10.8-3.2-.1-.1-.3-.2-.4-.3 1-.2 2.1-.2 3.2.1 1 .3 1.9.8 3 .9 2.8.3 5.6-.5 8-1.7.4-.2.1-.8-.3-.7-1.8.4-3.5 1-5.4 1.2-2.2.3-3.5-.5-5.4-1.1.6.1 1.1.3 1.7.5.2.1.6-.2.3-.4-2.6-2.4-7.8-.6-10.8.1-5.4-.1-12.3 1.2-13.9 1.6-2.3.6-3.5.3-6.7-1.2s-.6-4.1 0-9.4c.1-.6.1-1 .1-1.4 3 2.9 7.2 4 11.3 3.1 2-.5 3.4-1.4 5.6-1.4 1.9 0 3.6.8 5.4 1.3 2.5.8 4.3 1.2 6.9.7.1 0 .1-.2 0-.2-4.6.5-8.4-2.5-12.9-2.6-1.8 0-3.4.7-5.2 1-4.2.8-7.8-.6-11-3.1-.1-2.4-1-2.3-1.9-5.1-.5-1.4-.9-2.9-1.2-4.2l-.1 2.4c0 5.3 1.2 9.2.2 14.7l-.1 5.6c0 2 2 3.6 3.5 3.6l10.9.1c5.9.6 11 1.2 20.8 0 .7-.1 8.8.2 9.4.2l17-.6 16.8.4c1.1.2 2.6-.2 3.8-.9-2-1.1-5.4-2.9-7.8-3.5-3.5-.9-6.7.6-11.4.9-4.7.5-18.2 2.9-22.6 2.6zm-14.1-4.4c1.1-.2 2.1-.4 3.2-.5-.6.2-1.1.5-1.7.8l-1.5-.3zm12.9 38.2c-.7-.1-1.4-.1-2-.1-1.5 0-3.5 0-6.5-.6-3.1-.6-9.4-.9-13.3-1.1s-16.3 1.5-18.5 1.3-6.1-.9-11.3-1.5c-5.2-.6-17.4.9-19.6 1.3-1.4.3-4-.3-5.8-1.7 1.2.1 2.4.1 3.6 0 .3 0 .4-.4.1-.5-1.4-.5-3.1-.5-4.6-.4-.4-.5-.7-1.1-.9-1.8-.6-3-.1-4.5 0-7.8 1.7 1.6 4.2 1.6 6.8 1.5 3.5-.1 5.9 1.2 8.9 2.3 2.9 1.1 5.7-.4 8.6.6.2.1.3-.3.1-.4-1.2-.4-1.6-.4-2.9-.4-2 0-3.6.6-5.6-.4-1.1-.5-2-1.6-3.1-2.2-3.8-1.9-10.2 1.4-12.9-2.9-.2-3.5-1.1-6.1-1.9-9.1-.4-1.6-.7-3.1-.6-4.3-.7.4-1.2.9-1.2 1.6l-.2 3.6c0 5.3 1.2 9.2.2 14.7v5.6c0 2 2 3.6 3.5 3.6l10.9.1c5.9.6 11 1.2 20.8 0 .7-.1 8.8.2 9.4.2l17-.6 16.8.4c1.2.3 2.9-.1 4.2-1zm39 32.9c-2.3-.2-9.7.5-14.4 0s-11.7-1.3-16.4-1.6-17.8.7-17.8.7-2.5-.4-6.5-.9-17.1.7-18.9-2c-1.1-1.6-.9-3-.6-4.7l1.2.6c1.1.4 2.2.4 3.3.5 1.7.2 3.2.7 4.8 1.2.2.1.4-.3.2-.4-1.3-1-2.5-1.5-4.2-1.8-1.7-.3-3.8-.2-5.2-1.2.2-.9.3-1.8.4-3 .1-1.1 0-2.1-.2-3.2.8.1 1.7.3 2.5.2.3 0 .3-.4.1-.5-.8-.2-1.8-.3-2.7-.4-.5-2.6-1.4-5.2-2.2-8.4-.3-1.3-.5-2.2-.6-2.9-.7.4-1.2.9-1.2 1.6l-.2 3.6c0 5.3 1.2 9.2.2 14.7l-.1 5.6c0 2 2 3.6 3.5 3.6l10.9.1c5.9.6 11 1.2 20.8 0 .7-.1 8.8.2 9.4.2l17-.6 16.8.4c1.4.2 3.6-.4 4.8-1.6-1.1 0-3 .4-4.7.2zm42.1-166.6c-1.7-1-7.7-.2-11.1 0s-16.7-.2-18.8 0-11.1-.7-14-1.2c-2.9-.5-14.2.2-17.6.7s-10.3-.7-10.5-2.7c-.2-1.9-.2-3.6.2-7.7.1-.5.1-1 .1-1.4.9.6 2.5.5 3.3.4 1-.1 1.9-.4 2.9-.6 3.3-.7 5.1-.1 8.2.6 5.6 1.4 11.2 1.5 17 1 .1 0 .1-.2 0-.2-6.5.2-12.2-.1-18.5-2.1-4.5-1.4-8.4.5-12.9-.4-.2-2.6-.9-4.5-1.3-7.2-.3-2.6 0-5.4.6-7.3-2.2.2-3.8 1-3.8 2.3l-.1 3.6c0 5.3 1.2 9.2.2 14.7l-.1 5.6c0 2 2 3.6 3.5 3.6l10.9.1c5.9.6 11 1.2 20.8 0 .7-.1 8.8.2 9.4.2l17-.6 16.4.3v-1.3c-.6.1-1.3-.1-1.8-.4zm-10.6 32.1c-1.9-.8-9.5-.2-13.2-.5.5-.1.9-.2 1.4-.3 1.2-.3 2.7-.7 3.5-1.6.1-.2.1-.5-.2-.5-1.2.1-2.2.8-3.3 1-1.3.3-2.6.4-3.8.7-1.7-.9-2.7-2.9-3.8-5.6-.9-2.1-.3-3.4.1-5 1.8-.1 3.7.6 5.5.5 2.7 0 5.2-.6 7.8.5.1 0 .1-.1.1-.1-2.4-1.3-4.8-.8-7.4-1-2.1-.1-3.9-.9-5.8-.8.1-.6.1-1.2.1-1.9-.3-3.2-1-8.6-.3-10.5.2-.6.2-1.2 0-1.7-1.4.4-2.3 1.1-2.3 2l-.2 3.6c0 5.3-1 10.2.2 14.7l-.1 5.6c0 2 2 3.6 3.5 3.6l10.9.1c5.7.9 10.4.9 19.7-.2v-2.8c-1.7 0-2.6.9-4.1 1.1-2 .3-6.1 0-8.3-.9zm7.6 32.4c0-.8-21.2.3-24.4 0s-4.5-.3-6.5-.8-26.9.8-30.6 1.4-7.7-1.4-8.5-3.1c-.8-1.5.3-5.4.3-8.7.3.2.6.4.9.5.6.2 1.3.3 2 .2 1.8-.2 3.4-1.3 5.2-1.4.1 0 .2-.2 0-.2-1.8-.2-3.4.3-5.1.6-1.2.2-2-.4-3-.8v-.1c-.3-3.4-1.1-7.1-2-9.9-.4-1.3-.7-2.4-1.1-3.2-.2.3-.4.6-.4 1l-.2 3.6c0 5.3 1.2 9.2.2 14.7l-.1 5.6c0 2 2 3.6 3.5 3.6l10.9.1c5.9.6 11 1.2 20.8 0 .7-.1 8.8.2 9.4.2l17-.6 16.3.3V96h-.3c-1.8.4-4.3-.4-4.3-1.3zm.2 32.3c-.8-.5-2.1-.2-2.7.5-.2.2-.1.3.1.4-6.8.5-14.9 1.5-16.2 1.3-2.1-.3-6.4-2.9-6.4-6.4v-.6c1.1.2 2.2.8 3.2.9.6.1 1.2.1 1.8-.1 1-.3 2-1.4 3.3-.8.2.1.4-.1.3-.3-1.1-1.9-3.4.1-4.9.1-1.4.1-2.6-.5-3.9-.6-.4-2.2-1.8-2.7-2.8-5.7-1.2-3.5.3-5 .3-9.1 0-2.2-.5-3.4-1.1-4.2-.3.3-.6.7-.6 1.1l-.2 3.6c0 5.3-1 10.2.2 14.7l-.1 5.6c0 2 2 3.6 3.5 3.6l10.9.1c5.7.6 10.4.5 19.7-.6v-3.1c-1 0-2.4 0-3.9.1 0-.1-.2-.3-.5-.5zm-2.1.9c.5-.1.9-.4 1.4-.4.2 0 .4.1.6.2-.7.1-1.3.1-2 .2zm-9.2 34.7c-.6-.2-2.6-.3-5-.4 0-.8 0-1.5-.1-2.2 0-.1-.2-.3-.3-.3-2.5-.5-5.9 0-7.9 1.6-.2.1 0 .4.2.3 1.5-.4 2.9-1 4.4-1.2.6-.1 1.5-.2 2.1 0 .5-.1.8.1 1 .7.1.4.1.7.2 1.1-5.7-.2-13.9-.1-15.4.2-.4.1-1.3.2-2.4.2-.8-.1-1.7-.1-2.4.1h-.1c-4.5.2-10.5.4-11.7.2-1.7-.2-2.6-.9-6.1-1.7s-12 .4-13.9 0-1.5-2.8-1.5-5.9c0-2.2.4-3.3.9-5 .6.5 1.4.8 2.1.9s1.7 0 2.5-.4c.4.1.8.2 1.2.2 1.9.1 3.9-.4 5.8-.3 2.7.1 5.3.6 8 .9.3 0 .4-.5.1-.5-3.3-1-6.8-1.7-10.2-1.5-2.8.1-3.9.7-6.7-1.1-.7-.4-1.3-1-2-1.5.2-2.9-1.5-4.5-2.1-6.6-.5-1.8-1.1-3.2-.8-5-1.1.4-1.9 1-1.9 1.9l-.2 3.6c0 5.3 1.2 9.2.2 14.7l-.1 5.6c0 2 2 3.6 3.5 3.6l10.9.1c5.9.6 11 1.2 20.8 0 .7-.1 8.8.2 9.4.2l17-.6 16.4.5v-1c-.7-.1-1.3-.3-1.8-.5-1.7-.9-12-.2-14.1-.9zm-57.5-14.4c.9.9 2 1.9 3.1 2.4-.5.1-1-.1-1.5-.2-.8-.2-1.3-.6-1.9-1.1.1-.2.2-.6.3-1.1zm66.4 47c-.7-.1-1.5-.1-2.2-.3-.9-.2-1.7-.6-2.4-1.2-.3-.3-.8.2-.5.5.2.2.5.4.8.6-3.2 0-6.9 1.2-9.5 1.3-1.5.1-3.3-.5-4.8-1.5.3-.1.6-.1.8-.2.3-.1.3-.6-.1-.6-.6 0-1.2 0-1.8.1-1.3-1.1-2.2-2.4-2.6-3.8-.7-3.4-1.4-2-2.5-6.1s-.5-4.3.2-9.4c.5-3.6-.4-4.3-1.4-5.4-.7.4-1.2.9-1.2 1.6l-.2 3.6c0 5.3-1 10.2.2 14.7l-.1 5.6c0 2 2 3.6 3.5 3.6l10.9.1c5.7.6 10.4.5 19.7-.6v-1.6c-2.6-.2-5-.4-6.8-.7.2-.2.2-.3 0-.3zM25.7 97.8c1 .2 2.3-.1 3.5-.7-1.7-.2-4-.7-6.2-1 0-.1-.1-.2-.2-.2-1.1-.6-1.7-.6-3-.6-2.6 0-4.3-1.3-6.5-2-3.1-1-6.4-.2-9.6-.1-.4 0-.5.6-.1.7 3.5.6 7-.7 10.3.9.5.3 1 .6 1.6.9-3.7.1-10 .3-15.5.5v1.6l8.8-.3 16.9.3zm-.3 33.4c.7-.1 8.8.2 9.4.2l17-.6 16.8.4c1.1.2 2.7-.2 3.9-1-1.5-.4-3.3-.9-3.9-1.1-.7-.2-4.4-1-7.7-1.2-1.2-1-2.6-1.4-4.5-1.4-4 .2-7.4-1.6-11.5-1.3-.3 0-.3.4 0 .4 1.8.2 3.6.2 5.3.7 1 .3 2.3 1 3.4 1.2 1.1.2 2.2-.1 3.3 0 .5 0 1.1.1 1.6.2-1 .1-1.9.3-2.5.7-2.6 1.8-4.7.3-8.8.3s-15.2-.6-15.2-.6-11.4.3-15.8.9c-1.1.1-2.8.2-4.8.3.3-.3.5-.6.8-.8 2.5-2.3 4.5-2.4 7.8-2.2 4.9.3 9-1.6 13.9-2.1.1 0 .1-.2 0-.2-2.7.2-5.2.6-7.8 1.3-3.2.9-6.2-.1-9.5-.1-4.3 0-3.9 1.6-6.2 4.1-3.4.1-7.3 0-10.5-.2v1.8l4.6.1c6 .8 11.1 1.4 20.9.2zm.3 33.8c1.2.2 2.9-.2 4.1-1.1-1.5-.2-4.2.3-5.5-.2-1.7-.6-5.2-.6-8.3-.2-2 .3-9.6-.1-16-.7v2.1l8.8-.3 16.9.4zm22.8 30.8c-.6-.1-1.5-.1-2.6-.2-.3-1.5-.9-3.2-2.2-3.6-.5-.2-.9.1-1.4.1-1 .1-1.9 0-2.8-.2-1.3-.3-2.5-.7-3.9-.6-.2 0-.2.3 0 .3 1.9.4 3.6 1.4 5.5 1.6.5.1 1.1-.1 1.5-.1 1.5.3 2.1 1.2 2.4 2.4-5.8-.4-15.4-.8-19.5-.8-5.1 0-20.8.3-25.4.3v3.2l4.6.1c5.9.6 11 1.2 20.8 0 .7-.1 8.8.2 9.5.2l17-.6 16.8.4c1.1.2 2.7-.2 3.9-.9-2-.1-4.8-.2-6.1-.2-2.2 0-14.3-1-18.1-1.4zM25.7 32.1c1.3.2 3.2-.3 4.5-1.3-1.4-.3-3.4-.6-4.8-.9-3.4-5.6-12.7-4-18.1-5.5-.1 0-.1.1-.1.1 2.5 1 5.1.9 7.7 1.5 2.8.6 7 1.3 9.1 3.6-2.3-.1-6.6.6-9.5-.3-2.1-.6-9.5-.6-14.5-.8V32l8.8-.3 16.9.4zm-.3 33.3c.7-.1 8.8.2 9.4.2l17-.6 16.8.4c.9.2 2 0 3.1-.5-2-.1-4.3-.6-5.9-.8-2.5-.3-7.3-1.3-10.8-1.9-.4-.1-1-.1-1.8-.1 1.1-.3 2.2-.2 3.4-.3.4 0 .5-.5.1-.7-1-.4-2.1-.3-3.1-.1-.5.1-1 .3-1.5.5-.3.2-.7.4-1 .6-6.5.3-17.9 1.7-19.9 2-2.5.3-18.5-.3-21.7-1.3-1.3-.4-3.7-.5-6.3-.7 4.4-1.9 9.8-.1 14.5-.3 4.2-.2 8.4-.8 12.4-2.2.2 0 .1-.3-.1-.2-6.9 1.7-13 1.8-20.1 1-3.2-.4-5.4-.3-8 1.6-.6.1-1.3 0-1.9 0v3.4l4.6.1c5.9.5 11 1.1 20.8-.1zM155.5 29c3.6-.9 6.7-1.5 10.4-.8 2.3.5 4.3 1 6.6.6.1 0 .1-.2 0-.2-3.4.4-6.6-1.2-9.9-1.4-2.5-.1-5 .2-7.3 1.4-.1.2 0 .5.2.4zM55.2 12c.9-.5 1.8-.7 2.8-.8.1 0 0-.1 0-.1-1 0-2 .3-2.9.8-.1 0 0 .1.1.1zm5.5-.8c1-.1 1.9-.1 2.9-.3.1 0 .1-.1 0-.1-1 0-1.9.2-2.9.3-.2-.1-.2.1 0 .1zm31.1 39.5c.5 0 .5-.8 0-.8-.9 0-2 .2-2.6.9-.2.2 0 .5.3.4.8 0 1.5-.4 2.3-.5zm-6.8 5c-.2 0-.3 0-.4.1-.2.1-.2.4 0 .5.1.1.2.1.4.1.4 0 .4-.6 0-.7zm36 1.7c.1 0 .1-.1.2-.1.1-.1.1-.2 0-.3-.1 0-.1-.1-.2-.1-.6-.5-.6.9 0 .5zm8.9 1.4c.1-.2-.1-.3-.3-.2-.2.1-.3.3-.6.1-.3-.2-.6.3-.3.5.5.1 1.1.1 1.2-.4zm26-6.9c.2-.1.2-.4 0-.5-.2-.1-.3-.1-.5-.1-.6-.1-.6.8 0 .7.2 0 .3 0 .5-.1zm28.2 7.5c.2-.1.2-.3 0-.4-.4-.1-.7-.1-1.1-.1-.4 0-.4.6 0 .6s.8 0 1.1-.1zm6.8.2c.1 0 .1-.2 0-.2-.7-.2-1.4-.1-2.1-.1-.3 0-.3.5 0 .5.7-.1 1.4 0 2.1-.2zM22.2 24c2.6.9 4.7-1.3 6.9-2.2.2-.1.1-.3-.1-.3-2.3.6-4.2 2.9-6.7 2.1-.3-.1-.4.3-.1.4zm5.8-8.4c.3 0 .3-.5 0-.5-.4-.1-.4.5 0 .5zm14.1 43.8c.2 0 .2-.4 0-.4-.3 0-.3.4 0 .4zm11.8-.5c.4-.2.9-.4 1.3-.6.1-.1 0-.2-.1-.2-.5.1-.9.3-1.3.5-.1.1-.1.4.1.3zm-14.8-9.5c-7-.4-14.1-.5-21.1-1.3-5.1-.5-7.7-1.6-12.3 1.1-.1.1 0 .2.1.2 4.7-2.6 10.4-.5 15.6-.4 5.9.1 11.8.4 17.7.6.2 0 .2-.2 0-.2zm15.3-5.2c-.6-.1-1.2-.1-1.9-.2-.4 0-.4.6 0 .6.6 0 1.3 0 1.9-.2.1 0 .1-.2 0-.2zm8.1 2.9c.2 0 .2-.3 0-.3s-.2.3 0 .3zM45 51.5c.2 0 .2-.2 0-.2s-.2.2 0 .2zm-17.6 1.4c.2 0 .2-.4 0-.4s-.2.4 0 .4zm28 29.3c.2 0 .2-.2 0-.2-1.1-.4-2.2-.6-3.4-.9-.3-.1-.4.4-.1.4 1.2.3 2.3.6 3.5.7zm18.7-.1c.2-.1.1-.4-.1-.4-.9-.1-1.8.2-2.6.4-.2.1-.2.5.1.4.8 0 1.7 0 2.6-.4zm11.4 1.6c.2 0 .2-.3 0-.3s-.3 0-.5-.1c-.3 0-.3.5 0 .5.2 0 .3-.1.5-.1zm20.9 6.9c-.3 0-.3.5 0 .5s.3-.5 0-.5zm-13.1 2.3c.3 0 .3-.5 0-.5-.5 0-1.1 0-1.6.1-.2 0-.2.3 0 .3.6.2 1.1.1 1.6.1zm44.6-10.4c-.3-.1-.4.4-.1.4.5.1.9.2 1.4.2.2 0 .2-.3.1-.4-.6 0-1-.1-1.4-.2zm-8.7 11.3c-.3 0-.3.5 0 .5.7 0 1.4.1 2.1-.1.2 0 .2-.3 0-.3-.7-.2-1.4-.2-2.1-.1zm22.9-3.2c-2.3-.1-4.5.1-6.6 1.1-.3.2-.1.8.2.6 4.9-2.1 10.3.2 15.3-.4.4 0 .5-.6.1-.7-2.8-.6-6-.5-9-.6zm20.5 2.7c1.2.1 2.4.4 3.6.6.2 0 .3-.2.1-.3-1.1-.6-2.5-.8-3.8-.8-.3-.1-.3.5.1.5zm20.9-6.7c.2 0 .2-.3 0-.3-1.2-.1-2.4-.3-3.6-.3-.2 0-.2.3 0 .3 1.1.2 2.4.2 3.6.3zm-9.4-.5H183c-.1 0-.1.1 0 .1h1.1c.1.1.1-.1 0-.1zm-10 0c-5.1.5-10.1 0-15.1-.5-.3 0-.3.4-.1.5 5 1.1 10.2 1 15.2.5.3-.1.3-.5 0-.5zm-157.2 3c-.2.1 0 .4.2.3.8-.4 1.6-.5 2.5-.5.1 0 .2-.2 0-.2-.9-.4-1.9-.1-2.7.4zm6.6-10.5c-.1 0-.1.2 0 .2 1.4-.1 2.8-.2 4.2-.1.2 0 .2-.3 0-.3-1.4-.1-2.9-.1-4.2.2zm-18 36.5c-.2 0-.2.3 0 .3 1.1 0 2.3 0 3.4-.1.1 0 .1-.2 0-.2-1.1-.1-2.3 0-3.4 0zm5.4 1.2c.3.9.8 1.9 1.6 2.4.1.1.1-.1.1-.1-.6-.7-1.2-1.4-1.5-2.4 0-.2-.3-.1-.2.1zm3.8 2c-.2.1 0 .4.2.3 3.7-1.7 6.9-2.4 10.9-2.6.2 0 .2-.3 0-.3-3.6-.5-7.9.6-11.1 2.6zm99.6.4c.1 0 .1-.1 0-.2h-.5c-.1 0-.1.2 0 .2h.5zm11.6 6.8c1-.3 2-.2 3.1-.2.2 0 .3-.3.1-.3-1-.5-2.3-.3-3.3.1-.4 0-.3.5.1.4zm8.8.9c.3 0 .3-.4 0-.4s-.3.4 0 .4zm3.6.2c.2 0 .2-.3 0-.3s-.2.3 0 .3zm2.6-13.8c3.1.3 5.9 1.8 9 .9.3-.1.3-.6-.1-.6-2.9.3-5.5-.6-8.3-.8-3-.2-5.9 1.2-8.9.5-.4-.1-.6.4-.3.6 3 1.9 5.5-.9 8.6-.6zm-15.7.5c-2.7.6-5.3.8-8 1-.2 0-.2.3 0 .3 2.7 0 5.5-.4 8.1-1 .2 0 .1-.4-.1-.3zm54.4 5.2c.2 0 .2-.3 0-.3s-.2.3 0 .3zm.6-3.8c-.3 0-.5.1-.8.1-.2 0-.2.3 0 .3.3 0 .5.1.8.1.3 0 .3-.5 0-.5zm-6.8 9.7c.4 0 .4-.6 0-.6s-.4.6 0 .6zm-1.9-5.2c-.2 0-.2.3 0 .3s.2-.3 0-.3zm11.6 4.2c.2 0 .2-.3 0-.3-.2-.1-.4-.1-.6-.1-.3 0-.3.5 0 .5.2 0 .4 0 .6-.1zm4.6 0c-.2 0-.2.3 0 .3s.2-.3 0-.3zm8.2 1.7c-.4 0-.4.6 0 .6.3 0 .3-.6 0-.6zM158.6 150c.6.1 1.3.2 1.9.2.2 0 .2-.3 0-.3-.6-.2-1.2-.3-1.9-.3-.2-.1-.2.4 0 .4zm7.7 1.1c.1-.1 0-.2-.1-.2-.5.2-1 .3-1.5.2-.2 0-.2.3 0 .3.6.1 1.2 0 1.6-.3zm3.9-.1c-.3 0-.3.5 0 .5s.3-.5 0-.5zm-103.7 2.1c.2-.1.3-.2.5-.4.1-.1 0-.3-.2-.3-.2.1-.4.1-.6.2-.2.1 0 .7.3.5zm8.5-1.9c-.4 0-.4.6 0 .6s.4-.6 0-.6zm26.7 37.5c-.3 0-.3.6 0 .5 1-.1 2.2-.1 3.2-.4.2-.1.2-.3-.1-.4-1 0-2.1.2-3.1.3zm18.5 5.3c-.2.1-.2.4 0 .4.2.1.4.1.6.1.3 0 .3-.6 0-.5-.2-.1-.4-.1-.6 0zm6.1-.2c.2 0 .2-.3 0-.3-.5-.1-1-.1-1.6-.1-.3 0-.3.4 0 .4.5.1 1.1.1 1.6 0zm8.6-.2c-.3 0-.3.5 0 .5s.3-.5 0-.5zm46.7 1.6c.8-.2 1.8-.2 2.4-.7.1-.1 0-.2-.1-.2-.8-.2-1.7.2-2.5.4-.4 0-.2.6.2.5zm-161.5-5.3c-.1 0-.1.2 0 .2 3-.8 6.1-.4 8.8 1.1.2.1.4-.2.2-.3-2.8-1.7-5.9-2.1-9-1zm-15-5.2c-.4-.1-.6.6-.2.6 2.9.7 6.1.8 8.9-.5.3-.1.1-.6-.2-.5-3 .5-5.6.9-8.5.4zm25.5-7.2c-.5 0-1.1.1-1.6.2-.2.1-.1.4.1.4l1.5-.3c.2 0 .2-.3 0-.3zm13 1.4c-.2.1-.1.4.1.4 1.8-.4 3.5-.9 5.2-1.7.1-.1 0-.2-.1-.2-1.7.4-3.4 1-5.2 1.5zm11.1-1.9c-.9-.1-1.8-.1-2.7-.1-.3 0-.3.4 0 .4.9 0 1.8.1 2.7-.1.1.1.1-.1 0-.2zm4.9-.3h.3c.1 0 .1-.1 0-.1h-.3c-.1 0-.1.1 0 .1zm4.2 5.7c.3 0 .3-.4 0-.4-.3-.1-.3.4 0 .4zm-10 6.6c.1 0 .1-.1 0 0 0-.1 0 0 0 0zm-24.3-8.7c.3 0 .3-.5 0-.5s-.3.5 0 .5zm-13.3-24.6c.3 0 .3-.5 0-.5s-.3.5 0 .5zm1.8-.5c.3 0 .3-.5 0-.5s-.3.5 0 .5zm-7.6 3.4c.3 0 .3-.5 0-.5s-.3.5 0 .5zm10.4-9.7c.1 0 .1-.1.2-.1.1-.1.1-.2 0-.3-.1-.1-.1-.1-.2-.1-.6-.3-.6.8 0 .5z" fill="#a4c9d2" stroke-width="none" opacity="1"></path><path id="SvgjsPath15935" d="M65.5 71.8c-3.3-1.8-5.6-.7-9.1-.7-4.1 0-8-.9-12.2-.2-.2 0-.2.4 0 .4 2-.2 3.9-.4 5.9-.2 1.9.2 3.7 1.1 5.5 1.3 3.4.3 6.2-1.4 9.7-.4.2 0 .3-.2.2-.2zm21.3-1.4c-5.7.6-11.2 1.2-16.9 1.2-.2 0-.2.2 0 .2 5.6.1 11.4-.2 16.9-1.3.1 0 .1-.1 0-.1zm12.6-1.2c-1.6-.6-3.3-.4-4.8.2-.1 0 0 .1 0 .1 1.6-.6 3.1-.5 4.8-.1 0 0 .1-.1 0-.2zm14.3 1.3c-1.4-.9-3.1-.8-4.7-.7-.2 0-.2.4 0 .4 1.2 0 2.5 0 3.6.4 1.3.5 1.8 1.4 2.2 2.6.1.2.3.2.4 0 .2-1.1-.6-2.1-1.5-2.7zm3.2 7.7c0-.2-.3-.2-.3 0v1.2c0 .1.2.1.3 0 .1-.4 0-.8 0-1.2zm-8.3 24.7c-5.5-.5-11.1-.2-16.6-.1-3.7.1-8.1-.6-11.5.9-.2.1-.1.5.2.4 4.1-1.7 9.9-.5 14.3-.5 4.6 0 9.2.2 13.7-.2.2.1.2-.5-.1-.5zm50.3 1.4c-6.2-1.2-12.6-1.3-18.9-1.6-7.2-.3-14.4-.7-21.6.1-.2 0-.2.4 0 .3 6.9-.6 13.7-.7 20.6-.2 6.6.5 13.1 1.8 19.8 1.7.2.1.3-.2.1-.3zm1.3 2.8s0 .1 0 0c.1.1.1 0 0 0zm.2 0c0-.1-.1-.1-.1 0 .1 4-.3 8.1-.2 12.1 0 .1.1.1.2 0 .5-3.9.3-8.1.1-12.1zm35.6-4c-2.5 0-5.1.3-7.6.1-1.9-.2-3.8-1-5.7-1.1-3.9-.2-7.3.5-11.2-.2-.4-.1-.5.5-.2.6 4.4 1.3 9.1 1 13.6 1.3 3.6.2 7.4-.1 11-.3.3-.1.3-.4.1-.4zm-36-33.2c-6.2.2-12.5.6-18.7.1-4.8-.4-10.2-2.5-14.9-.8-.2.1-.1.4.1.3 4.9-1.5 11.5 1.3 16.7 1.6 5.6.3 11.3-.2 16.8-.9.1 0 .2-.3 0-.3zm31.7-32.4c-3.1-2-7.1-.2-10.6-.6-3.8-.4-7.1-1-11 0-.3.1-.2.5.1.5 3.8-.6 7.1 0 10.8.5 3.4.4 7.4-1.2 10.6 0 .2 0 .3-.3.1-.4zm-76.6-.3c-11 1.4-21.9-.6-32.9 0-.3 0-.3.5 0 .5 11 .2 22.2 2.4 33-.2.1 0 .1-.3-.1-.3zm40.1-.3c-7.5.5-14.8-1.3-22.4-.2-.2 0-.1.3 0 .3 5.1-.6 9.4-.2 14.4.5 2.4.3 11.8-.5 11.9 2.8 0 .3.4.4.5.1.8-3.1-1.8-3.6-4.4-3.5zM115 5.1c-3.9-2.9-9.1 1-13.3 0-.2 0-.3.2-.1.3 2.8 1.2 5 .4 7.9-.1 3.1-.5 5.8.2 6.7 3.6.6 2.2.5 4.8.7 7 0 .3.5.3.5 0-.2-3.3.6-8.6-2.4-10.8zm-21.7-.9c-3.8 0-7.7-.1-11.5-.2-.2 0-.2.2 0 .2 3.9.3 7.7.2 11.6.1.1.1.1-.1-.1-.1zm-35.6 23c-2.4-.5-4.8-.6-7.2-.5-1.6.1-10.7 2.2-9.6-1.8.1-.2-.3-.4-.4-.2-1 1.9.5 3.5 2.4 3.8 1.5.2 3-.4 4.5-.6 3.4-.6 6.8-.6 10.3-.5.1.2.1-.1 0-.2zm2.8.4c-.4 0-.4.6 0 .6s.4-.6 0-.6zm7.3 1.4c-2-.5-4.1-.8-6.1-1-.1 0-.2.2 0 .2 2 .5 4 1 6.1 1.1.1.1.2-.2 0-.3zm63.5-.8c-1.1-.2-2.4-.1-3.2-.9-1-1-.6-2.4-.3-3.5.3-1.3.6-2.6-.1-3.9-.1-.2-.5 0-.4.2 1 2.2-1.2 4.5-.4 6.7.6 1.7 2.7 2.2 4.3 2 .3 0 .5-.5.1-.6zm13-8.5c-2.5-.4-5.1-1.4-7.6-1.6-2.8-.2-7.1 2.3-9.5.5-.2-.1-.4.2-.2.3 1.6 1.4 3.2.8 5 .3 4.5-1.3 7.9.5 12.3.7.1.1.1-.1 0-.2zM126.6 3.6c0-.2-.3-.4-.4-.1-.5 2.6-.5 5.1.3 7.6.1.2.3.1.3-.1-.4-2.5-.6-4.9-.2-7.4zm-96.9.9c-2.5-2-5.2-1.5-8.2-1.3-4.8.5-9.4.3-14.1-.2-.1 0-.2.2 0 .3 3.4.7 6.7 1.1 10.2 1.1 4.1 0 7.9-.9 11.9.6.2 0 .4-.3.2-.5zm.5 6.1c-.1-1.5.1-3.1-1-4.2-.1-.2-.4.1-.2.2 1.2 1.6.8 4.7.9 6.6.1 1.8.1 3.6.3 5.3 0 .1.2.1.2 0 .2-2.6-.1-5.3-.2-7.9zm.3 14.7c0-.2-.4-.2-.4 0 .1 1 0 1.9-.1 2.9 0 .1.2.1.2 0 .4-.9.4-1.9.3-2.9zm42.9 16.2c-.1-2.2-1-4.1-3.4-3.6-.2 0-.1.3 0 .3 3.9 1.1 2 9.4 2.2 12.2.2 2.7.7 5.1 1.7 7.5.1.1.2 0 .2-.1-2.1-5.5-.5-10.7-.7-16.3zm-4.7-3.8c-2.1.1-4.2 0-6.3-.1-.2 0-.2.3 0 .3 2.1.4 4.2.3 6.3 0 .2 0 .2-.2 0-.2zm-35.4-1.3c-3.4-.8-6.8-.3-10.3 0-4.2.3-8.4.6-12.5 1.2-.2 0-.2.3 0 .3 7.3-.2 15.5-2.6 22.7-1.1.3 0 .4-.4.1-.4zM17.7 46.7c-2.9 1.2-5.8-1.1-8.7-.3-.1 0-.1.2.1.2 2.9-.8 6 1.9 8.8.3.1-.1 0-.3-.2-.2zm6.9 22.8c-6.8.3-12.3 1.3-18.9-1.2-.2-.1-.4.3-.2.4 2.8 1.2 5.7 2 8.8 2.3 2.7.2 13.1-1.7 14.4 1.7.1.2.5.2.5-.1 0-2.7-2.2-3.2-4.6-3.1zm5.9 9.9c0-.3-.4-.3-.4 0 0 1-.1 2.1 0 3.1 0 .2.3.2.3 0 .2-1 .1-2.1.1-3.1zM53.4 104c-6.5-1.7-13.3-1.4-19.9-1.4-.2 0-.2.2 0 .2 6.7 0 13.2.4 19.8 1.5.2.1.3-.2.1-.3zm.8 24.2c-7.7.5-15.5-1.1-23.2-1.3-.2 0-.2.3 0 .3 7.3 1 16 2.8 23.3 1.3.1-.1.1-.3-.1-.3zm18.1-19.3c.2-2.2 1.1-4.8-1.7-5.3-.3-.1-.5.3-.2.5 2.3 1.5.9 8.9 1.2 11.5.3 3.4.9 6.7 1.6 10.1 0 .1.2.1.2 0-.8-5.6-1.6-11.2-1.1-16.8zm33.3 8.2c-3.7-3.4-7.5-3.4-12-1.8-.3.1-.2.6.1.4 2.2-.7 4.4-1.5 6.7-1 1.8.4 3.3 1.7 5 2.5.2.2.3 0 .2-.1zm15.3 4.2c-.5-1-1.6-1.2-2.6-1-.7.2-1.4.6-2 .9-1.4.7-2.6 1.1-4.2 1.2-.3 0-.3.5 0 .5 1.2 0 2.3-.2 3.4-.7 1.7-.7 3.3-2.2 5-.6.3.2.5 0 .4-.3zm37.4 15.8c-5.6-.4-10.5 2.8-16 1.9-5.4-.9-10.6-1.9-16.1-2.4-.3 0-.3.4-.1.5 6 .9 12.1 2.9 18.1 3.4 1.3.1 2.4-.1 3.6-.4 3.6-1.1 6.5-2.1 10.4-2.3.5-.2.5-.7.1-.7zm30.4-1.4c-6.1 0-13.7-.4-19.6 1.5-.2.1-.1.4.1.4 6.1-1.9 13.2-1 19.5-1.6.2 0 .2-.3 0-.3zm-61.1 24.5c-.8 0-1.2-.3-1.2-.9 0-.3-.1-.5-.1-.8-.1-.4-.1-.9-.1-1.3-.1-.9-.1-1.8-.1-2.7 0-.2-.3-.2-.3 0-.1 1.2-.1 2.4 0 3.6.1.7 0 1.8.5 2.4.4.6 1.5.7 1.6-.2-.1-.1-.2-.2-.3-.1zm36.7-.8c-2.9.3-5.8 1-8.6 1.5-3.6.7-6.6.3-10.2-.2-.2 0-.4.3-.1.4 2.5.4 5.1 1.1 7.6.9 3.7-.3 7.7-1.2 11.3-2.2.3-.1.3-.4 0-.4zm-94.1-22.8c-5.6-.1-10.8 1.8-16.3.2-4.9-1.4-9.8-1-14.8-.6-.1 0-.1.2 0 .2 3.2-.1 6.5-.4 9.7-.2 3.1.2 5.3 1.9 8.2 2.4 3.9.7 9.5-.6 13.3-1.6.2 0 .1-.4-.1-.4zm45.6 0c-6.7-.7-13.4-.6-20.1-1-6.1-.3-11.6.9-17.6 1-.2 0-.2.3 0 .3 5.9-.1 11.6-1.2 17.6-.8 6.7.4 13.4 1.2 20.1 1.3.5 0 .5-.7 0-.8zm1.7 10c-.1-.2-.3-.3-.4-.5-.4-.8-.3-1.4-.1-2.3.4-1.8.5-3.2-.5-4.9-.2-.3-.6 0-.5.3.6 1.1.8 2.4.4 3.6-.2.7-.8 1.4-.9 2.1-.1 1.2 1.4 1.7 1.3 3 0 .3.3.3.5.1.4-.5.4-.8.2-1.4zm.2 4.5c0-.3-.4-.3-.4 0 0 1.1-.1 2.3.1 3.4 0 .2.3.2.3 0 .1-1.1 0-2.3 0-3.4zM61 153.5c-2.8-.3-2.3-.8-4.9-2.9-.2-.2-.5-.8-.8-1.1-3.4-2.8-13 2.4-15.5-1.7-.1-.2-.4 0-.3.2 2.5 4.9 10-.1 14.1 2 2.1 1.1 1 2.4 2.7 3.5 1.2.8 3.5.4 4.8.3.1 0 .1-.3-.1-.3zm10.1 1.6c-1.6-.1-3.2.1-4.8.2-.3 0-.3.4 0 .4 1.6-.1 3.3-.1 4.8-.4.2-.1.1-.2 0-.2zm21.3-8.7c-1.6-.2-3.2-.1-4.8-.1-.3 0-.3.4 0 .4 1.6 0 3.2.1 4.8-.1.2 0 .2-.2 0-.2zm-69.7-8.8c-3.3-1.1-6.2-.6-9.6-.4-4 .2-7.8-.3-11.6-1.6-.2-.1-.4.3-.2.4 7.1 3.1 13.8 1.5 21.3 2 .2 0 .3-.3.1-.4zm4.3-.1c-.2 0-.3.4-.1.4 1.4.2 2.3 1.4 2.5 2.8 0 .1.2.1.2 0 .4-1.6-1.1-3.1-2.6-3.2zm3.2 6.8c0-.2-.3-.2-.3 0-.1 1.5-.4 3.2-.1 4.6 0 .2.4.2.4 0 .4-1.4.1-3.1 0-4.6zM71.8 173c-.1-.4-.6-.3-.6.1-.3 4.4.1 8.9.2 13.3 0 1.7.7 4.8.1 6.4-1.2 3.1-4.3 2.6-6.8 2.8-.2 0-.2.3 0 .3 4-.1 7.5 1.2 7.8-3.1.3-6.4.4-13.6-.7-19.8zm-.8-3.6c-2.5-.7-5.3 0-7.8.2-2.8.3-5.5.6-8.3 1.1-.2.1-.2.4.1.4 5.3-.1 10.7-1.4 16-1.3.2.1.2-.3 0-.4zm-24.1.2c-5.4-.9-11-1.3-16.4-.8-6.1.6-11.8 2.4-18 2.3-.2 0-.2.2 0 .3 4.8.5 9.5-.5 14.3-1.2 6.8-1 13.2-1.1 20-.2.2 0 .3-.4.1-.4zm6.6 10.5c-1.9.2-3.7.6-5.6.9-.2.1-.1.4.1.4 1.8-.3 3.7-.6 5.5-1.1.2 0 .1-.2 0-.2zm39.2 9.6c-1.6-2.5-5-3.6-7.9-2.8-.3.1-.2.5.1.5 2.9-.4 5.3.5 7.4 2.5.3.1.5 0 .4-.2zm11.5 1.7c-1.4-.1-3 .3-4.4.5-.3 0-.2.6.1.5 1.4-.2 3-.2 4.4-.7.1 0 .1-.3-.1-.3zm7.2-.3c-.2.1-.5.1-.7.2-.2.1-.1.3.1.3.2-.1.5-.2.7-.3.1-.1 0-.3-.1-.2zm17.1-4c-1.3-.9-3-1-4.5-.7-.3.1-.2.6.1.5 1.5-.3 2.9-.1 4.3.4.1.1.2-.1.1-.2zm7.3 1.6c-.7 0-1.4 0-2.2-.1-.2 0-.2.3 0 .3.7 0 1.4 0 2.2-.1.2 0 .2-.1 0-.1zm8 .4c-.6.1-1 .2-1.6.1-.3-.1-.5.4-.1.5.6.1 1.3.1 1.9-.2.1-.2 0-.4-.2-.4zm5.1-8.1c-.3 0-.3.5 0 .5s.3-.5 0-.5zm-64.4-10.8c-1.1-.8-2.4-.9-3.8-.7-.3 0-.2.4.1.4 1.2-.2 2.4.1 3.6.5.1.1.2-.1.1-.2zm48-.1c-2.8-.9-5.2-.4-8.1.1-4.4.8-8.4.6-12.8.7-3.3.1-6.4 1.4-9.8 1.3-3.3-.1-6.2-.9-9.5-.3-.2 0-.1.3 0 .3 3.2-.2 6.2.6 9.4.8 3.2.2 5.8-.9 8.9-1.1 3.6-.3 7.1.4 10.7-.1 3.7-.6 7-1.6 10.9-1 .6.2.8-.5.3-.7zm25.4-.2c-3.6-.9-7-.3-10.6 0-3.2.3-6.3-.8-9.3.4-.2.1-.1.5.1.4 3.2-.8 6.5.2 9.8.1 3.3-.2 6.6-.1 9.9 0 .4-.1.5-.7.1-.9zm1 1.6c-.2-.2-.5.1-.4.3.4.5.6 1 .8 1.5.2.5.2 1 .3 1.6.1.2.4.2.4 0 .3-1.3-.3-2.6-1.1-3.4zm10.8-.5c-.5 2.7-.8 5.4-.2 8.1 0 .2.4.2.4-.1.1-2.7 0-5.3.4-7.9 0-.2-.5-.4-.6-.1zm.5 11.7c0-.3-.4-.3-.4 0-.1 1 .3 1.9.8 2.7.7 1.2 1.2 2 1.2 3.4 0 .2.2.2.3.1 1.3-2-1.9-4.2-1.9-6.2zm20-12.2c-3.4-.3-6.8 0-10.3-.6-.3-.1-.4.4-.1.5 3.4.6 7.1 1.4 10.5.8.4 0 .2-.6-.1-.7z" fill="#ecf0f1" stroke-width="none" opacity="1"></path></g><g id="svga-group-humanwrap-move" transform="matrix(1,0,0,1,0,0)"><g id="svga-group-humanwrap"><g id="svga-group-hair-back-move" transform="matrix(1,0,0,1,0,0)"><g id="svga-group-hair-back"></g></g><g id="svga-group-humanbody-back"><path id="SvgjsPath13415" d="M180.8 184.9c-2.3-3.4-38.9-17.8-38.9-17.8l-13.4-5.2-5.6-68.8H76.8L71.3 162l-13.4 5.2S21.4 181.6 19 185c-2.3 3.4-3.3 14.9-3.3 14.9V219h168.5v-19.2c-.1.1-1-11.5-3.4-14.9z" fill="#f0c7b1" stroke-width="none" opacity="1" stroke="none"></path></g><g id="svga-group-chinshadow-single"><path id="SvgjsPath14379" d="M94.3 163.2s17.4.7 30.2-15c.96-1.2 1.83-2.36 2.64-3.5l-4.2-51.6H76.82l-4.96 62.4c11.08 8.16 22.44 7.7 22.44 7.7z" fill="#d19271" stroke-width="none" opacity="1" stroke="none"></path></g><g id="svga-group-humanbody-front"><path id="SvgjsPath13416" d="M184.5 219c-.1-6.4-.1-12.8-.1-19.2l-.3-.1s.1-.1.2 0c.1 0 .1.1.1.1v-.4l-.1-.5-.1-.9-.2-1.9c-.2-1.3-.4-2.5-.6-3.8-.2-1.3-.5-2.5-.9-3.8-.4-1.2-.8-2.5-1.5-3.6-.8-.9-1.9-1.5-2.9-2.1-1-.6-2.1-1.1-3.2-1.7-2.1-1.1-4.3-2.1-6.5-3.1-4.4-2-8.7-3.9-13.1-5.7-4.4-1.9-8.8-3.7-13.2-5.5l-13-5.2-1.2-16.9c-.4-5.7-.9-11.5-1.3-17.2l-1.3-17.2-1.5-17.3-.1-.8h-.8c-7.7 0-15.4.1-23.1.1l-23.1.2h-.5v.5L75 110.2l-1.3 17.2c-.8 11.4-1.8 22.8-2.8 34.2-5.6 2.1-11.2 4.2-16.7 6.4-5.6 2.2-11.2 4.5-16.8 6.9-2.8 1.2-5.6 2.4-8.3 3.6-2.8 1.3-5.5 2.5-8.2 4.1-.7.4-1.3.8-2 1.4-.2.1-.4.4-.5.6l-.3.6c-.2.4-.4.7-.5 1.1-.6 1.5-1 3-1.3 4.5-.6 3-1.1 6-1.4 9.1l-.1 19.1v.9h.9l42.1.1H100c14 0 28.1-.1 42.1-.2l42.1-.5h.3v-.3zm-84.5-1-42.1-.1-41.2.1-.1-18.1c.3-3 .6-5.9 1.2-8.9.3-1.4.6-2.9 1.1-4.2.1-.3.3-.7.4-.9l.2-.4.3-.3c.5-.4 1.1-.8 1.8-1.2 2.5-1.5 5.3-2.8 8-4.1 2.7-1.3 5.5-2.5 8.2-3.7 5.5-2.4 11.1-4.8 16.7-7.1s11.2-4.5 16.9-6.7l.2-.1v-.2c.9-11.5 1.7-23 2.7-34.4l1.4-17.2 1.5-16.7 22.6.2c7.4.1 14.8.1 22.3.1l1.3 16.4 1.5 17.2c.5 5.7 1 11.5 1.5 17.2l1.6 17.2v.3l.3.1 13.4 5c4.4 1.7 8.9 3.4 13.3 5.2 4.4 1.8 8.8 3.7 13.2 5.6 2.2 1 4.3 2 6.5 3 1.1.5 2.1 1.1 3.2 1.6 1 .6 2.1 1.2 2.9 2 .7 1.1 1.1 2.3 1.4 3.5.3 1.2.6 2.5.8 3.7.2 1.3.4 2.5.6 3.8l.2 1.9.1.9.1.5v.4c0 6.3 0 12.6-.1 18.9l-41.8-.5c-14 .1-28.1 0-42.1 0z" fill="#c27b55" stroke-width="none" opacity="1" stroke="none"></path><path id="SvgjsPath13417" d="M125.1 142.4s-1.8 23-9.1 32.9c0 0 7.9-25 9.1-32.9zm-34.5 16s5 7.9 11.5 10.1c0 0-9.5 2.2-11.5-10.1zM73.4 140c6.7 25.6 6.7 25.6 8.5 30.7 0 0 .4-12.6-8.5-30.7z" fill="#d19271" stroke-width="none" opacity="1" stroke="none"></path></g><g id="svga-group-clothes-single"><path id="SvgjsPath13305" d="M56.9 166.6s-31.1 11.5-38.3 16.7c0 0-2.3 2.3-3.3 9.3-1 7-1.4 27.3-1.4 27.3h171.5s-.2-16.2-1.3-25.3c-1.2-9.1-1.9-9.3-3.1-10.5-1.2-1.2-27.3-14-38.6-17.5 0 0-1.6 22-40.1 23.6s-45.2-17.5-45.4-23.6z" fill="#000000" stroke-width="none" opacity="1" stroke="none"></path><path id="SvgjsPath13306" d="M185.8 220c-.1-6.6-.3-13.2-.7-19.8-.2-3.3-.6-6.6-1.1-9.8-.3-1.6-.5-3.3-1.3-4.9-.2-.4-.5-.8-.8-1.1-.3-.3-.6-.6-1-.9-.8-.5-1.5-.9-2.2-1.2-5.8-3.1-11.8-5.9-17.8-8.7-3-1.4-6-2.7-9.1-3.9-3.1-1.3-6.1-2.5-9.3-3.5l-.5-.2-.1.6c-.3 2.1-1 4.2-2.1 6.1l-.4.7-.4.7-.9 1.4-1 1.3c-.4.4-.7.9-1.1 1.2-1.5 1.6-3.2 2.9-5 4.1-.9.6-1.8 1.2-2.8 1.7l-3 1.4c-4.1 1.6-8.3 2.9-12.7 3.6l-3.3.5-3.3.3-3.3.3c-1.1.1-2.2 0-3.3.1H96c-1.1 0-2.2-.1-3.3-.1l-3.3-.2-3.3-.4c-2.2-.2-4.3-.8-6.5-1.2-1.1-.2-2.1-.6-3.2-1l-1.6-.5-1.5-.7c-4.1-1.7-7.9-4.1-10.8-7.4l-1.1-1.2c-.3-.4-.6-.9-1-1.3-.7-.9-1.1-1.9-1.7-2.8-1-2-1.6-4.1-1.8-6.4-3.4 1.2-6.6 2.4-9.9 3.6-3.3 1.2-6.5 2.5-9.8 3.8-3.2 1.3-6.5 2.7-9.6 4.1-3.2 1.5-6.4 2.9-9.3 4.9-1.1 1.3-1.7 2.8-2.2 4.2-.5 1.5-.9 3-1.1 4.6-.5 3.1-.6 6.2-.8 9.3-.4 6.2-.6 12.4-.7 18.7v.4h.4c14.3.1 28.6-.1 42.9-.1l42.9-.1h21.4l21.4.1 42.9.2h.4v-.5zm-64.7-.2H99.7l-42.9-.1c-6.8 0-13.6 0-20.5-.1-.1-3.4-.5-6.7-1-10-.6-3.4-1.3-6.8-2.5-10-.6-1.6-1.5-3.2-2.5-4.6-1-1.4-2-2.8-3.2-4.1-2.3-2.6-4.9-4.9-7.6-6.9 2.5 2.3 4.9 4.8 7.1 7.4 2.1 2.6 4.1 5.4 5.3 8.6 1.2 3.1 2 6.5 2.7 9.8.4 1.7.7 3.4 1 5 .3 1.6.6 3.2.8 4.9-7.3 0-14.6-.1-22 0 .1-6.1.3-12.1.6-18.2.2-3.1.3-6.2.8-9.3.2-1.5.6-3 1.1-4.5.5-1.4 1.1-2.9 2-4 2.8-1.9 6-3.4 9.1-4.9 3.2-1.5 6.4-2.8 9.6-4.2 3.2-1.4 6.4-2.7 9.7-4l9.7-3.8c.1 2.1.8 4.4 1.7 6.4.5 1 1 2 1.7 2.9.3.5.6.9 1 1.4l1.1 1.3c3 3.4 6.8 5.9 10.9 7.6l1.5.7 1.6.5c1.1.3 2.1.8 3.2 1 2.2.5 4.3 1.1 6.6 1.3l3.3.5 3.3.2c1.1.1 2.2.2 3.3.2h5.3c-.2.7-.2 1.3-.1 1.9.1.7.2 1.3.5 2-1.1 0-2.1.1-3.2 0-4.8 0-9.6-.2-14.3-.9-.6-.1-1.2-.1-1.8-.2l-1.8-.4-3.5-.7c-1.2-.3-2.3-.7-3.4-1l-1.6-.5c.5-.5.9-1.2 1.2-1.8.3-.7.6-1.5.7-2.3-.6.6-1 1.3-1.4 2-.3.7-.6 1.3-.7 2.1-.6-.2-1.1-.4-1.6-.6-1.5-.6-2.9-1.2-4.3-1.9.3-.3.6-.5.8-.8.3-.3.5-.6.8-.9.5-.7.9-1.4 1.2-2.2-.7.5-1.3 1.1-1.8 1.7-.2.3-.5.7-.7 1.1-.2.3-.3.7-.4 1.1-2.2-1.1-4.2-2.5-6-4.1.8-.4 1.4-.9 2-1.5.6-.6 1.2-1.3 1.6-2.1-.8.4-1.5 1-2.1 1.6-.6.6-1.1 1.2-1.5 2-.5-.5-1.1-.9-1.6-1.4-.5-.4-.8-.9-1.2-1.3-.4-.4-.8-.9-1.2-1.4-.7-1-1.4-1.9-2-3-1.2-2.1-2.1-4.3-2.4-6.7.2 2.4 1.1 4.7 2.2 6.9.5 1.1 1.2 2.1 1.9 3.1.3.5.8.9 1.1 1.4.4.4.8 1 1.2 1.4 3.4 3.5 7.6 6.1 12.1 7.9.6.2 1.1.5 1.7.7l1.7.6c1.2.4 2.3.8 3.5 1.1l3.6.8 1.8.4c.6.1 1.2.2 1.8.2 4.8.7 9.6.9 14.5 1 9.6 0 19.4-1.3 28.4-5 4.5-1.9 8.7-4.3 12.3-7.6 1.8-1.7 3.4-3.4 4.7-5.5 1.4-2 2.5-4.1 3.1-6.5-1.6 4.6-4.7 8.4-8.2 11.6-3.6 3.2-7.8 5.5-12.3 7.3-6.6 2.6-13.6 3.9-20.7 4.4.1-.6.1-1.1 0-1.6-.1-.6-.3-1.2-.6-1.8-.2.7-.2 1.3-.1 1.9.1.5.2 1.1.5 1.6-1.3.1-2.7.1-4 .2.2-.7.2-1.4.2-2.1-.1-.6-.2-1.2-.5-1.9h1.2l3.3-.2c1.1-.1 2.2-.1 3.3-.3l3.3-.5c4.4-.6 8.8-1.9 12.9-3.5 4.1-1.7 8-4.2 11.2-7.4.4-.4.8-.8 1.1-1.3l1.1-1.3.9-1.4.5-.7.4-.8c1-1.8 1.7-3.7 2.1-5.8 2.9.9 5.8 2.1 8.6 3.3l9 3.9c6 2.7 11.9 5.5 17.7 8.6.7.4 1.5.8 2.1 1.2.3.1.6.5.9.7.3.3.4.6.6.9.6 1.4.9 3 1.2 4.6.5 3.2.9 6.5 1.2 9.8.5 6.4.7 12.9.8 19.3l-22.5.1c.3-1.7.5-3.3.8-4.9.3-1.7.6-3.4 1-5 .7-3.3 1.5-6.7 2.7-9.8 1.1-3.1 3.2-5.9 5.3-8.6 2.2-2.6 4.6-5.1 7.1-7.4-2.8 2-5.3 4.4-7.6 6.9-1.2 1.3-2.2 2.6-3.2 4.1-1 1.4-1.8 3-2.4 4.6-1.2 3.2-2 6.6-2.5 10-.5 3.4-.9 6.7-1 10.1l-19.9.1-21.7-.6zm16.2-41.2c.3.7.7 1.2 1.2 1.7s1 .9 1.7 1.2c-.3-.7-.7-1.2-1.2-1.7s-1-1-1.7-1.2z" fill="#000000" stroke-width="none" opacity="1" stroke="none"></path></g><g id="svga-group-head" transform="matrix(1,0,0,1,0,0)"><g id="svga-group-ears-left-move" transform="matrix(1,0,0,1,0,0)"><g id="svga-group-ears-left"><path id="SvgjsPath13315" d="M68.53 80.36s-11.15-9.8-12.94-9.96c-1.54-.14-5.36 8.01-7.05 13.16-.45 1.36-.34 2.88.25 4.2 1.62 3.57 5.21 11.04 8.43 14.78 0 0 2.72.59 3.58.33.86-.25 7.58-5.67 8.27-7.77s.83-11.3-.54-14.74z" fill="#f0c7b1" stroke-width="none" opacity="1" stroke="none"></path><path id="SvgjsPath13316" d="M69.49 84.19c.18 1.31.28 2.64.33 3.96.05 1.32.06 2.65-.01 3.98a26.7 26.7 0 0 1-.17 1.99c-.05.34-.1.67-.2 1.02s-.28.7-.46.96c-.72 1.11-1.6 1.95-2.47 2.8-.88.84-1.78 1.63-2.71 2.4-.47.38-.93.75-1.42 1.11-.24.18-.49.35-.74.52l-.4.24c-.16.08-.35.17-.53.19-.67.08-1.23-.01-1.82-.09-.58-.08-1.15-.19-1.73-.32l-.13-.03-.08-.1c-1.45-1.74-2.63-3.68-3.74-5.65-1.1-1.98-2.1-4.03-3.06-6.1l-1.41-3.11c-.5-1.05-.71-2.29-.54-3.46.06-.59.26-1.14.44-1.67.18-.54.37-1.07.56-1.6.4-1.05.79-2.11 1.22-3.15.86-2.07 1.76-4.13 2.94-6.02.3-.47.62-.93 1-1.36.19-.21.4-.42.67-.59.13-.08.3-.16.52-.16.19.01.32.07.47.12 1.06.47 1.87 1.14 2.75 1.76 1.72 1.29 3.37 2.66 5 4.09 1.64 1.41 3.22 2.86 4.81 4.38.49 1.27.72 2.58.91 3.89zM58.4 72.51c-.85-.59-1.75-1.26-2.59-1.61-.09-.02-.2-.08-.26-.08-.04 0-.12.02-.2.07-.17.1-.35.25-.51.44-.34.36-.65.8-.94 1.24-1.16 1.8-2.18 3.77-3.11 5.77-.46 1.01-.92 2.02-1.32 3.06-.2.52-.4 1.04-.59 1.57-.19.53-.38 1.05-.45 1.6-.15 1.11.06 2.27.55 3.26.47 1.03.98 2.05 1.49 3.05 1.02 2.02 2.12 3.99 3.26 5.91 1.15 1.91 2.36 3.79 3.76 5.42l-.21-.13c1.09.2 2.3.43 3.29.33.11-.01.18-.06.28-.11l.35-.22.7-.5c.47-.34.93-.71 1.39-1.08.92-.74 1.81-1.52 2.68-2.34.85-.82 1.73-1.66 2.39-2.61.17-.25.29-.46.38-.72.08-.27.14-.58.19-.89.09-.63.17-1.27.21-1.91.1-1.29.14-2.6.15-3.9.01-1.31-.04-2.62-.15-3.92-.11-1.3-.27-2.62-.66-3.84-3.33-2.62-6.67-5.35-10.08-7.86z" fill="#e1ac8f" stroke-width="none" opacity="1" stroke="none"></path><path id="SvgjsPath13317" d="M68.79 88.66S58.04 75.08 56.02 76.21c-2.01 1.12-5.19 7.53-5.18 9.67.02 3.14 3.34 8.38 5.01 9.96s3.68 2.55 6.35 1.94c2.66-.61 6.59-9.12 6.59-9.12z" fill="#e1ac8f" stroke-width="none" opacity="1" stroke="none"></path><path id="SvgjsPath13318" d="M60.61 88.64c-.45-1.26-.95-2.5-1.45-3.74a49.61 49.61 0 0 0-1.66-3.64c-.61-1.18-1.22-2.36-1.97-3.45l-.08-.12-.08.12c-.75 1.18-1.45 2.38-2.12 3.62-.33.62-.66 1.25-.96 1.89-.31.64-.57 1.31-.84 1.98l-.04.1.04.12c.46 1.41.96 2.79 1.47 4.18.25.69.54 1.37.83 2.05.3.68.59 1.35.99 2.01l.19.31.25-.23c.34-.31.6-.65.87-1.02.26-.37.49-.76.69-1.17.4-.82.63-1.78.6-2.74v-.06l-.02-.04c-.5-.99-1.03-1.96-1.55-2.94l-.05.03c.42 1.01.83 2.03 1.26 3.03-.04.86-.3 1.68-.68 2.41-.33.62-.77 1.17-1.24 1.65-.26-.49-.5-1.02-.73-1.56l-.81-2.03c-.53-1.32-1.03-2.66-1.52-3.99.45-1.3.94-2.59 1.52-3.82.57-1.23 1.22-2.41 1.96-3.51.67 1.04 1.17 2.23 1.68 3.39l1.54 3.67 1.56 3.67c.52 1.22 1.05 2.45 1.6 3.66l.06-.03c-.41-1.27-.85-2.54-1.31-3.8z" fill="#c27b55" stroke-width="none" opacity="1" stroke="none"></path></g></g><g id="svga-group-ears-right-move" transform="matrix(1,0,0,1,0,0)"><g id="svga-group-ears-right"><path id="SvgjsPath13319" d="M131.47 80.36s11.15-9.8 12.94-9.96c1.54-.14 5.36 8.01 7.05 13.16.45 1.36.34 2.88-.25 4.2-1.62 3.57-5.21 11.04-8.43 14.78 0 0-2.72.59-3.58.33-.86-.25-7.58-5.67-8.27-7.77s-.83-11.3.54-14.74z" fill="#f0c7b1" stroke-width="none" opacity="1" stroke="none"></path><path id="SvgjsPath13320" d="M131.44 80.33c1.58-1.52 3.17-2.97 4.81-4.38 1.62-1.42 3.28-2.8 5-4.09.88-.63 1.69-1.29 2.75-1.76.16-.04.28-.11.47-.12.21 0 .38.08.52.16.28.17.49.37.67.59.38.43.7.89 1 1.36 1.18 1.89 2.07 3.96 2.94 6.02.43 1.04.82 2.09 1.22 3.15.19.53.38 1.06.56 1.6.18.53.37 1.08.44 1.67.17 1.17-.04 2.41-.54 3.46l-1.41 3.11c-.97 2.06-1.96 4.11-3.06 6.1-1.11 1.98-2.29 3.92-3.74 5.65l-.08.1-.13.03c-.58.13-1.15.23-1.73.32-.59.07-1.16.16-1.82.09-.18-.02-.37-.11-.53-.19l-.4-.24c-.25-.17-.5-.34-.74-.52-.48-.36-.95-.73-1.42-1.11-.93-.76-1.83-1.56-2.71-2.4-.87-.86-1.75-1.69-2.47-2.8a3.42 3.42 0 0 1-.46-.96c-.1-.35-.14-.69-.2-1.02-.08-.67-.14-1.33-.17-1.99-.07-1.33-.07-2.65-.01-3.98.06-1.32.15-2.65.33-3.96.17-1.34.4-2.65.91-3.89zm.06.06c-.4 1.21-.56 2.54-.66 3.84-.1 1.3-.15 2.61-.15 3.92.01 1.31.06 2.61.15 3.9.05.65.12 1.29.21 1.91.06.31.11.62.19.89.09.26.2.47.38.72.66.94 1.54 1.79 2.39 2.61.86.81 1.76 1.59 2.68 2.34.46.37.92.73 1.39 1.08l.7.5.35.22c.1.05.17.1.28.11.99.1 2.2-.13 3.29-.33l-.21.13c1.4-1.63 2.61-3.51 3.76-5.42 1.14-1.92 2.24-3.89 3.26-5.91.51-1.01 1.02-2.02 1.49-3.05.49-.99.7-2.15.55-3.26-.07-.56-.26-1.07-.45-1.6s-.38-1.05-.59-1.57c-.4-1.04-.86-2.06-1.32-3.06-.93-2.01-1.95-3.97-3.11-5.77-.29-.44-.6-.88-.94-1.24-.17-.18-.35-.34-.51-.44a.431.431 0 0 0-.2-.07c-.06 0-.17.06-.26.08-.84.35-1.74 1.02-2.59 1.61-3.39 2.49-6.73 5.22-10.08 7.86z" fill="#e1ac8f" stroke-width="none" opacity="1" stroke="none"></path><path id="SvgjsPath13321" d="M131.21 88.66s10.75-13.58 12.77-12.45c2.01 1.12 5.19 7.53 5.18 9.67-.02 3.14-3.34 8.38-5.01 9.96s-3.68 2.55-6.35 1.94c-2.66-.61-6.59-9.12-6.59-9.12z" fill="#e1ac8f" stroke-width="none" opacity="1" stroke="none"></path><path id="SvgjsPath13322" d="M148.54 85.31c-.26-.67-.52-1.34-.84-1.98-.3-.64-.62-1.27-.96-1.89-.67-1.24-1.38-2.44-2.12-3.62l-.08-.12-.08.12c-.74 1.1-1.36 2.27-1.97 3.45-.6 1.18-1.14 2.4-1.66 3.64-.49 1.24-1 2.48-1.45 3.74-.46 1.26-.9 2.53-1.28 3.81l.06.03c.55-1.21 1.07-2.44 1.6-3.66l1.56-3.67 1.54-3.67c.51-1.16 1.01-2.35 1.68-3.39.74 1.1 1.39 2.29 1.96 3.51.58 1.24 1.08 2.52 1.52 3.82-.5 1.34-.99 2.67-1.52 3.99l-.81 2.03c-.23.53-.47 1.07-.73 1.56-.47-.48-.91-1.03-1.24-1.65-.39-.73-.64-1.55-.68-2.41.43-1 .84-2.02 1.26-3.03l-.05-.03c-.52.98-1.05 1.95-1.55 2.94l-.02.04v.06c-.03.96.2 1.92.6 2.74.2.41.43.81.69 1.17.26.36.53.71.87 1.02l.25.23.19-.31c.4-.67.69-1.34.99-2.01.29-.68.57-1.36.83-2.05.51-1.38 1.01-2.77 1.47-4.18l.04-.12-.07-.11z" fill="#c27b55" stroke-width="none" opacity="1" stroke="none"></path></g></g><g id="svga-group-faceshape-wrap"><g id="svga-group-faceshape-single"><path id="SvgjsPath14366" d="M139.42 105.09c.29-8.36-.32-24.19.98-36.59 0 0 .9-9.5 0-13.6-2.2-10-6.3-16-15.2-20.8-9.3-5-25.2-4.8-25.2-4.8s-15.9-.2-25.2 4.8c-8.8 4.8-13 10.8-15.2 20.8-.9 4 0 13.6 0 13.6 1.3 12.4.52 25.14.91 34.65.49 15.53 4.95 26.5 10.09 33.1 12.7 15.7 29.4 15.35 29.4 15.35s15.46 1.51 28.16-14.19c8.05-9.99 10.85-20.76 11.26-32.32z" fill="#f0c7b1" stroke-width="none" opacity="1" stroke="none"></path><path id="SvgjsPath14367" d="M87.9 137.9s8.6-8.5 21.2-.5c0 0-12.3-3-21.2.5z" fill="#d19271" stroke-width="none" opacity="1" stroke="none"></path><path id="SvgjsPath14368" d="M128.16 137.41c8.06-9.99 10.86-20.76 11.26-32.32.29-8.36-.32-24.19.98-36.59 0 0 .9-9.5 0-13.6-2.2-10-6.3-16-15.2-20.8-9.3-5-25.2-4.8-25.2-4.8s-15.9-.2-25.2 4.8c-8.8 4.8-13 10.8-15.2 20.8-.9 4 0 13.6 0 13.6 1.3 12.4.52 25.14.91 34.65.49 15.53 4.95 26.5 10.09 33.1 12.7 15.7 29.4 15.35 29.4 15.35s15.46 1.51 28.16-14.19zm-5.62 4.69c-2.14 1.75-4.41 3.3-6.84 4.57-2.44 1.24-5 2.22-7.64 2.86-.66.18-1.32.32-1.99.43-.66.14-1.34.21-2.01.3-1.32.14-2.74.21-3.95.11h-.15c-2.6-.07-5.41-.57-8.03-1.33-2.64-.77-5.22-1.78-7.63-3.11-4.86-2.58-9.15-6.21-12.64-10.46-3.35-4.3-5.73-9.43-7.31-14.76-1.57-5.35-2.42-10.92-2.68-16.53-.33-5.63-.25-11.32-.34-17.02-.08-5.7-.31-11.42-.91-17.11-.33-2.83-.55-5.64-.65-8.47-.05-1.41-.06-2.82.01-4.22.04-.69.09-1.39.22-2.06.12-.68.3-1.37.45-2.06.69-2.73 1.64-5.39 2.96-7.86 1.36-2.45 3.09-4.69 5.19-6.55 2.09-1.86 4.49-3.41 6.99-4.67 2.51-1.23 5.24-2.02 7.99-2.63 5.52-1.15 11.21-1.55 16.83-1.46 5.62.17 11.28.81 16.68 2.19 2.7.69 5.33 1.6 7.71 2.91 2.43 1.34 4.72 2.89 6.7 4.76 4.02 3.71 6.38 8.86 7.71 14.27.73 2.59.72 5.42.74 8.24-.02 2.83-.18 5.62-.4 8.49-.68 11.42 0 22.8-.28 34.17-.21 5.61-1.03 11.23-2.84 16.53-1.8 5.31-4.6 10.23-8.11 14.54-.84 1.11-1.85 2.07-2.77 3.11-.45.53-1 .96-1.49 1.44-.49.45-.98.94-1.52 1.38z" fill="#c27b55" stroke-width="none" opacity="1" stroke="none"></path></g></g><g id="svga-group-mouth-single-move" transform="matrix(1,0,0,1,0,0)"><g id="svga-group-mouth-single"><path id="SvgjsPath13482" d="M119.75 120.2c-2.07.95-4.03 1.44-5.29 1.57-4.78.49-8.33.87-12.75 2.53-1.8.7-2.7.9-4.5.4-1.4-.4-2.8-.7-4.2-.9-2.1-.32-4.18.13-6.29.2-1.2.04-2.44-.29-3.84-.62-.7 0-1.25.22.14.97 3.11 1.68 5.12 1.2 8.62 2 2.4.5 6.2 3.44 8.6 2.64 3-1 6.57-3.23 9.57-4.23 3.3-1 4.76-.51 9.4-3.4.65-.45.99-1.37.54-1.16z" fill="#da7c87" stroke-width="none" opacity="1" stroke="none"></path></g></g><g id="svga-group-eyes-left-move" transform="matrix(1,0,0,1,0,0)"><g id="svga-group-eyes-left"><g id="svga-group-eyesback-left"><path id="SvgjsPath14752" d="M80.2 74.2c7.5 0 13.5 5.8 13.5 13s-6 13-13.5 13-13.5-5.8-13.5-13 6-13 13.5-13z" fill="#ffffff" stroke-width="none" opacity="1"></path></g><g id="svga-group-eyesiriswrapper-left" transform="matrix(1,0,0,1,0,0)"><g id="svga-group-eyesiriscontrol-left" transform="matrix(1,0,0,1,0,0)"><g id="svga-group-eyesiris-left"><path id="SvgjsPath14926" d="M80.2 81.6c3.1 0 5.6 2.5 5.6 5.6s-2.5 5.6-5.6 5.6-5.6-2.5-5.6-5.6 2.5-5.6 5.6-5.6z" fill="#4e60a3" stroke-width="none" opacity="1"></path><path id="SvgjsPath14927" d="M80.2 82.7c2.5 0 4.5 2 4.5 4.5s-2 4.5-4.5 4.5-4.5-2-4.5-4.5 2-4.5 4.5-4.5z" fill="#000000" stroke-width="none" opacity="1"></path><path id="SvgjsPath14928" d="M74.6 87.2c0 .9.2 1.8.6 2.6.8.5 1.8.8 2.8.8 2.9 0 5.3-2.4 5.3-5.3 0-1.2-.4-2.4-1.1-3.3-.6-.2-1.3-.4-2-.4-3.1 0-5.6 2.5-5.6 5.6z" fill="#6777b2" stroke-width="none" opacity="1"></path><path id="SvgjsPath14929" d="M75.7 87.2c0 1.3.5 2.4 1.4 3.3.3.1.6.1 1 .1 2.9 0 5.3-2.4 5.3-5.3 0-.5-.1-1.1-.2-1.6-.8-.7-1.8-1.1-2.9-1.1-2.6.1-4.6 2.1-4.6 4.6z" fill="#1e1e1e" stroke-width="none" opacity="1"></path><path id="SvgjsPath14930" d="M77.7 84.8c.6-.7 1.6-.9 2-.4.5.5.4 1.4-.3 2.1s-1.6.9-2 .4c-.4-.5-.3-1.4.3-2.1z" fill="#2b2b2b" stroke-width="none" opacity="1"></path></g></g></g><g id="svga-group-eyesfront-left"><path id="SvgjsPath14760" d="M80.2 73.7c-7.8 0-14.1 6.1-14.1 13.6s6.3 13.6 14.1 13.6 14.1-6.1 14.1-13.6S88 73.7 80.2 73.7zm-4.9 20.2c-4.8-1.7-6.4-6.7-7.2-10.1-.9-3.5 13.8-3.5 17.5-.4 3.8 3 5.3 7.3 5.5 9.6.1-.1-11 2.6-15.8.9z" fill="#f0c7b1" stroke-width="none" opacity="1"></path><path id="SvgjsPath14761" d="M91.1 92.5c-.1-.5-.1-1-.3-1.4l-.3-.9c-.5-1.9-1.5-4.5-3-6.2-1.2-1.3-4.1-4.4-9-4.4s-8.2 1.6-8.8 1.9c-.2.1-.5.3-.7.5-.4.2-.8.5-1.1 1-.1.2-.1.3-.1.5-.1.1-.1.2-.1.2h.1c0 .1 0 .3.1.4.1.3.2.6.2.9l.6 1.8c.4 1.2.9 2.3 1.6 3.4.7 1.1 1.5 2 2.5 2.8s2.2 1.3 3.4 1.6c2.5.5 5 .3 7.5 0s4.9-.8 7.3-1.5c.2-.2.2-.4.1-.6zm0 .4c-2.4.4-4.9.8-7.3 1.1-1.2.1-2.5.2-3.7.2-1.2 0-2.5 0-3.7-.2-2.4-.4-4.6-1.9-5.8-4-.7-1-1.2-2.2-1.6-3.3-.2-.6-.4-1.2-.5-1.8-.1-.3-.2-.6-.2-.9 0-.2-.1-.3-.1-.4 1.4-.4 6.6-1.9 10.5-1.9 4.5.1 7.9 3.6 9.3 5.1 1.2 1.1 3 5.1 3.1 6.1z" fill="#000000" stroke-width="none" opacity="1"></path></g></g></g><g id="svga-group-eyes-right-move" transform="matrix(1,0,0,1,0,0)"><g id="svga-group-eyes-right"><g id="svga-group-eyesback-right"><path id="SvgjsPath14753" d="M119.8 74.2c7.5 0 13.5 5.8 13.5 13s-6 13-13.5 13-13.5-5.8-13.5-13 6-13 13.5-13z" fill="#ffffff" stroke-width="none" opacity="1"></path></g><g id="svga-group-eyesiriswrapper-right" transform="matrix(1,0,0,1,0,0)"><g id="svga-group-eyesiriscontrol-right" transform="matrix(1,0,0,1,0,0)"><g id="svga-group-eyesiris-right"><path id="SvgjsPath14931" d="M119.8 82.3c2.7 0 4.9 2.2 4.9 4.9s-2.2 4.9-4.9 4.9-4.9-2.2-4.9-4.9 2.2-4.9 4.9-4.9z" fill="#4e60a3" stroke-width="none" opacity="1"></path><path id="SvgjsPath14932" d="M119.8 83.2c2.2 0 4 1.8 4 4s-1.8 4-4 4-4-1.8-4-4 1.8-4 4-4z" fill="#000000" stroke-width="none" opacity="1"></path><path id="SvgjsPath14933" d="M114.9 87.2c0 .8.2 1.6.6 2.3.7.4 1.5.7 2.4.7 2.6 0 4.6-2.1 4.6-4.6 0-1.1-.4-2.1-1-2.9-.5-.2-1.1-.3-1.7-.3-2.7-.1-4.9 2.1-4.9 4.8z" fill="#6777b2" stroke-width="none" opacity="1"></path><path id="SvgjsPath14934" d="M115.8 87.2c0 1.1.5 2.2 1.2 2.9.3.1.6.1.8.1 2.6 0 4.6-2.1 4.6-4.6 0-.5-.1-.9-.2-1.4-.7-.6-1.6-.9-2.5-.9-2.1-.1-3.9 1.7-3.9 3.9z" fill="#1e1e1e" stroke-width="none" opacity="1"></path><path id="SvgjsPath14935" d="M117.6 86.1c.6-.6 1.4-.8 1.8-.4.4.4.3 1.2-.2 1.8s-1.4.8-1.8.4c-.4-.4-.3-1.2.2-1.8z" fill="#2b2b2b" stroke-width="none" opacity="1"></path></g></g></g><g id="svga-group-eyesfront-right"><path id="SvgjsPath14762" d="M119.8 73.7c-7.8 0-14.1 6.1-14.1 13.6s6.3 13.6 14.1 13.6 14.1-6.1 14.1-13.6-6.3-13.6-14.1-13.6zm5.3 19.5c-4.4 1.8-15 .1-15 .1.1-1.9 1.3-5.8 4.7-8.7 3.4-2.9 17.2-3.8 16.6-.7-.7 3.1-1.9 7.6-6.3 9.3z" fill="#f0c7b1" stroke-width="none" opacity="1"></path><path id="SvgjsPath14765" d="M131.6 84.1s0-1.3-.9-1.7c-.6-.2-4.4-1-9.1-.7-2.6.2-4.6 1.1-6.1 2.1-.3.2-.6.3-.8.5-.9.8-1.7 1.6-2.4 2.6-1.3 1.9-2.3 4.1-2.3 6.4 0 .3.1.8.1.8s.1-.3.2-.7c2.2.4 4.3.7 6.6.8 1.2.1 2.3.1 3.4.1 1.2 0 2.3-.2 3.4-.4s2.2-.8 3.2-1.4c.9-.7 1.7-1.6 2.4-2.5.6-1 1.1-2 1.5-3.1.2-.5.3-1.1.5-1.7l.2-.8c0-.1 0-.1.1-.2v-.1zm-.4.1-.2.8c-.1.6-.3 1.1-.4 1.7-.4 1.1-.8 2.1-1.4 3.1-1.2 1.9-3.3 3.2-5.5 3.6-.6.1-1.1.2-1.7.3-.6 0-1.1.1-1.7.1-1.1.1-2.3.1-3.4 0-2.2-.1-4.4-.2-6.6-.4.4-1.5 1.5-4.6 2.4-5.7 1.2-1.5 4.2-4.5 8.5-4.9 3.6-.3 8.6.8 10 1.2v.2z" fill="#000000" stroke-width="none" opacity="1"></path></g></g></g><g id="svga-group-facehighlight-single"></g><g id="svga-group-eyebrows-left-move" transform="matrix(1,0,0,1,0,0)"><g id="svga-group-eyebrows-left-rotate" transform="matrix(1,1.7453292519943295e-9,-1.7453292519943295e-9,1,1.2391838311032188e-7,-1.3753196981269866e-7)"><g id="svga-group-eyebrows-left"><path id="SvgjsPath15040" d="M92.8 69.5s-.2 3.9-1 7.1c0 0-16.1-4.6-18-4.8-1.9-.2-8.4 4.1-8.4 4.1l6.5-9.8 3.8.3-.6-.9 8 1.9 7.5 1.2.5 2.8.4-2.8.5 2.8.8-1.9z" fill="#2a232b" stroke-width="none" opacity="1"></path><path id="SvgjsPath15041" d="m92.8 69.5-.1.1c-.1.3-.2.5-.4.8-.1.2-.2.4-.3.7l-.4-2.5-.2-.9-.2.9-.3 1.6-.3-1.6v-.2h-.2l-3.9-.7-1.9-.3c-.6-.1-1.3-.2-1.9-.3-2.6-.6-5.1-1.2-7.7-1.8l-.8-.2.5.8.3.1-3.1-.2h-.2l-.1.1c-1.1 1.7-2.1 3.3-3.2 5l-3.2 5-.4.6.6-.4c1.9-1.3 3.9-2.5 6-3.4.5-.2 1.1-.4 1.6-.6.3-.1.5-.1.8-.1l.4.1.4.1c1.1.3 2.3.6 3.4.9 2.3.7 4.5 1.3 6.8 1.9 2.3.6 4.5 1.2 6.8 1.8l.2.1v-.2c.3-1.2.4-2.4.6-3.6.1-.6.1-1.2.2-1.8 0-.3 0-.6.1-.9V69.6l.1-.1c0 .1 0 0 0 0zm-.1.4-.1.4-.1.9-.3 1.8c-.2 1.1-.4 2.2-.7 3.3-2.2-.7-4.4-1.3-6.6-2-2.3-.7-4.5-1.3-6.8-1.8-1.1-.3-2.3-.5-3.4-.8l-.4-.1-.4-.1c-.3 0-.6 0-.9.1-.6.2-1.1.4-1.6.6-1.9.9-3.7 1.9-5.5 3.1l2.9-4.2c1.1-1.6 2.2-3.2 3.2-4.7l3.6.3.7.1-.4-.7-.1-.1c2.3.6 4.6 1.1 6.9 1.6l3.9.6 3.7.5.5 2.5.2 1.2.2-1.2.3-2 .4 1.9.1.3.1-.3.3-.9c.1-.3.2-.6.3-.8v.5zm-2.9 4.7c0-.8-.1-1.7-.2-2.5-.1-.4-.1-.8-.2-1.2s-.2-.8-.4-1.2c.1.4.1.8.1 1.2 0 .4.1.8.2 1.2.1.8.3 1.7.5 2.5zm-1.2-1.7c-.2-.3-.3-.7-.5-1l-.5-1-1-1.9-.2-.5v.6c0 1.6 0 3.2.1 4.8l.3-.1c-.3-.4-.6-.9-.9-1.3l-.9-1.2c-.3-.4-.6-.8-1-1.2-.3-.4-.7-.8-1.1-1.1.3.4.7.8 1 1.2l.9 1.2c.3.4.6.8.9 1.3.3.4.6.9.8 1.3l.3.5v-.6c0-1.6-.1-3.2-.1-4.8l-.2.1 1.1 1.9.6.9c0 .3.2.6.4.9z" fill="#1b141c" stroke-width="none" opacity="1"></path></g></g></g><g id="svga-group-eyebrows-right-move" transform="matrix(1,0,0,1,0,0)"><g id="svga-group-eyebrows-right-rotate" transform="matrix(1,1.7453292519943295e-9,-1.7453292519943295e-9,1,1.2705996255135688e-7,-2.123193070246998e-7)"><g id="svga-group-eyebrows-right"><path id="SvgjsPath15042" d="M107.2 73.2s.9 3.1 2.3 5.5c0 0 14.9-6.1 16.8-6.5 1.9-.4 9 2 9 2l-8.2-6.9-3.6.8.4-.8-7.5 2.7-7.1 2v2.3l-.9-2.2v2.3l-1.2-1.2z" fill="#2a232b" stroke-width="none" opacity="1"></path><path id="SvgjsPath15043" d="m135.4 74.1-4-3.5c-1.3-1.2-2.7-2.3-4.1-3.5l-.1-.1h-.1l-3 .6.1-.2.4-.7-.8.3c-2.4.8-4.8 1.7-7.2 2.6l-1.8.6-1.8.6-3.7 1.1h-.2v1.5l-.6-1.3-.3-.7v.7l.1 2c-.1-.2-.3-.3-.4-.5-.2-.2-.3-.4-.5-.6l-.1-.1V73.2l.1.2.1.4c.1.2.2.5.2.7.2.5.3.9.5 1.4.3.9.8 1.9 1.2 2.8l.1.2.2-.1c2.1-.8 4.2-1.6 6.4-2.5 2.1-.8 4.2-1.7 6.3-2.5 1.1-.4 2.1-.8 3.2-1.2l.4-.1.4-.1c.3-.1.5-.1.8-.1.6 0 1.1.1 1.7.2 2.2.4 4.4 1.1 6.6 1.8l.6.2-.7-.4zm-8.3-2.1c-.3 0-.6 0-.9.1l-.4.1-.4.1c-1.1.3-2.2.7-3.2 1.1-2.2.8-4.3 1.6-6.4 2.4-2.1.8-4.1 1.7-6.1 2.6-.5-.8-.9-1.7-1.2-2.5-.2-.4-.4-.9-.6-1.4l-.3-.7-.1-.3-.1-.2v-.1c.2.2.3.4.4.6.2.2.3.4.5.7l.2.2V72.8l.6 1.5.4.9v-3.1l3.6-1c1.2-.3 2.5-.7 3.7-1 2.2-.8 4.3-1.5 6.5-2.3v.1l-.3.6.7-.2 3.5-.8c1.3 1.1 2.7 2.2 4 3.3l3.6 2.9c-2-.6-3.9-1.2-6-1.6-.6.1-1.1 0-1.7-.1zm-16 4.7c-.2-.7-.2-1.3-.2-2v-1c0-.3 0-.7.2-1 0 .3.1.7.1 1s.1.7.1 1c-.1.7-.1 1.4-.2 2zm.9-1.5c.1-.3.2-.6.3-.8l.3-.8.6-1.7.2-.4.1.4c.3 1.3.5 2.6.8 3.8h-.3l.6-1.2c.2-.4.4-.8.7-1.1.2-.4.5-.7.7-1.1s.5-.7.8-1c-.3.3-.5.7-.7 1.1-.2.4-.4.7-.7 1.1l-.6 1.2-.6 1.2-.2.4-.1-.4c-.3-1.3-.5-2.6-.8-3.8h.3l-.7 1.6-.4.8c0 .2-.1.4-.3.7z" fill="#1b141c" stroke-width="none" opacity="1"></path></g></g></g><g id="svga-group-beardwrap"><g id="svga-group-beard-single-move" transform="matrix(1,0,0,1,0,0)"><g id="svga-group-beard-single"></g></g></g><g id="svga-group-mustache-single-move" transform="matrix(1,0,0,1,0,0)"><g id="svga-group-mustache-single"><path id="SvgjsPath14184" d="M100.42 113.85c-9-.12-12.74-1.2-16.33-.48s-1.44 10.77-1.44 10.77l1.29-2.3.86 2.73 1.29-2.15.86 2.44s7.81 1.35 13.12.49l.66-2.65.43 2.58s3.59 0 7.61-.14l.29-2.44.79 2.3 1.08-2.3.73 2.37 1.71-3.66.57 4.31s1.58 0 2.58-.43l.57-1.44.5 1.64s.8-.77 1.08-4.22 1.15-7.18-2.15-7.75c-3.29-.57-8.19.44-16.1.33z" fill="#2a232b" stroke-width="none" opacity="1"></path><path id="SvgjsPath14185" d="M118.52 114.66c-.34-.54-.9-.92-1.5-1.09-.61-.17-1.22-.21-1.84-.26-2.47-.1-4.93.18-7.38.32-2.46.16-4.92.24-7.38.22 2.46.04 4.93-.03 7.38-.17 2.46-.12 4.92-.37 7.37-.26.61.05 1.23.09 1.81.27.58.17 1.1.54 1.4 1.05.61 1.05.54 2.35.47 3.55-.1 1.22-.26 2.45-.38 3.67-.07.61-.18 1.21-.33 1.8-.12.44-.27.91-.47 1.29l-.36-1.26-.16-.57-.23.55-.55 1.33c-.68.25-1.45.33-2.2.36l-.51-4.09-.12-.97-.42.88-1.38 2.9-.48-1.58-.26-.8-.37.77-.73 1.52-.5-1.5-.5-1.48-.19 1.55-.26 2.13c-2.33.07-4.66.12-6.99.14l-.39-2.28-.27-1.65-.4 1.63-.6 2.42c-2.06.3-4.18.31-6.28.21-2.13-.11-4.27-.31-6.38-.63l-.83-2.28-.17-.48-.25.43-1.03 1.76-.74-2.27-.13-.41-.21.38-1.05 1.91c-.41-2.13-.69-4.3-.58-6.47.09-1.13.24-2.37 1.01-3.23.38-.45.97-.56 1.54-.64.58-.08 1.16-.13 1.74-.14 2.33-.04 4.66.24 6.98.39 2.33.16 4.66.26 7 .28-2.33-.04-4.67-.15-6.99-.33-2.33-.16-4.65-.46-6.99-.44-.59.01-1.17.05-1.75.13-.56.08-1.21.18-1.62.66-.43.43-.66 1-.82 1.57-.16.57-.24 1.16-.29 1.74-.16 2.35.12 4.69.54 7l.08.43.22-.39 1.1-1.91.71 2.32.14.45.25-.41 1.05-1.71.68 1.97.05.14.15.03c2.18.37 4.37.63 6.58.77 2.21.12 4.43.13 6.65-.2l.22-.03.06-.22.26-1.01.15.92.05.3h.31c2.54 0 5.08-.04 7.62-.14l.31-.01.04-.31.1-.9.28.82.28.8.36-.77.71-1.53.49 1.55.25.8.35-.76 1.27-2.79.48 3.33.03.22.21-.01c.9-.04 1.8-.12 2.67-.47l.08-.03.03-.09.35-.9.34 1.07.11.34.2-.26c.44-.58.57-1.18.73-1.79.14-.61.23-1.23.3-1.84.1-1.24.23-2.45.31-3.69.02-1.18.08-2.51-.59-3.62z" fill="#1b141c" stroke-width="none" opacity="1"></path></g></g><g id="svga-group-nose-single-move" transform="matrix(1,0,0,1,0,0)"><g id="svga-group-nose-single"><path id="SvgjsPath13467" d="M99.1 116.5c.67.12 4.53-3.31 4.53-3.31s2.06 1.59 3.62 1.43c1.56-.16 2.44-1.08 3-1.96.56-.88-.89-3.1-1.78-4.41-.9-1.31-3.54-5.22-4.09-7.02-1.07-3.45-3-4.76-4.92-4.64-1.92.12-4.04 1.52-4.6 3.44-.56 1.92-.72 4.28-1.8 5.76s-3.32 4-3.56 4.72c-.24.72-.11 2.8 1.24 3.56 1.73.97 4.3-.51 4.3-.51s3.18 2.78 4.06 2.94z" fill="#f0c7b1" stroke-width="none" opacity="1" stroke="none"></path><path id="SvgjsPath13468" d="M110.28 110.87c-.42-1.01-1.08-1.86-1.81-2.61.57.88 1.08 1.8 1.39 2.76.15.48.24.97.16 1.42-.05.23-.12.41-.26.6-.13.2-.29.39-.47.54-.69.66-1.7.91-2.68.78-.49-.06-.99-.2-1.46-.39-.45-.16-.86-.39-1.29-.62.38-.56.72-1.15 1.02-1.76-.97.91-1.89 1.83-2.87 2.64-.49.4-.98.8-1.51 1.09-.51.3-1.07.55-1.51.52-.12.01-.21-.02-.31-.04-.09-.05-.17-.06-.3-.16-.24-.15-.49-.36-.74-.55-.5-.39-.99-.82-1.49-1.23-.99-.84-1.99-1.69-3.07-2.48a21.8 21.8 0 0 0 1.68 2.24c-.5.22-1.01.41-1.53.52-.64.12-1.3.15-1.84-.1-1.09-.53-1.72-1.83-1.54-2.94.05-.28.13-.5.3-.74.17-.26.36-.53.56-.79.4-.52.82-1.02 1.26-1.52l.66-.74c.26-.28.46-.56.67-.84.41-.57.77-1.18 1.07-1.83.3-.65.48-1.4.59-2.06.12-.68.22-1.35.3-2.02.15-1.35.27-2.69.31-4.04.1-2.7.03-5.42-.51-8.07.05 2.69-.14 5.35-.4 8-.15 1.32-.29 2.65-.5 3.96-.1.66-.2 1.31-.32 1.96-.12.66-.27 1.22-.54 1.79a9.34 9.34 0 0 1-.94 1.65c-.18.26-.37.53-.57.74-.23.26-.45.51-.66.78-.43.53-.85 1.07-1.24 1.63-.2.28-.39.57-.57.88-.2.33-.34.76-.37 1.14-.13 1.57.85 3.05 2.25 3.55.73.23 1.47.11 2.12-.11.54-.19 1.03-.46 1.49-.77.24.28.47.57.71.84.44.5.91.96 1.41 1.42.25.23.51.44.82.65.13.1.36.22.57.3.22.06.44.12.66.11.88 0 1.55-.38 2.14-.76.58-.41 1.1-.86 1.55-1.37.44-.48.84-.99 1.21-1.53.75.66 1.64 1.25 2.68 1.45.54.12 1.11.12 1.66 0 .55-.14 1.07-.41 1.49-.8.21-.19.39-.42.54-.65.17-.23.29-.54.32-.84.06-.55-.08-1.1-.29-1.6z" fill="#c27b55" stroke-width="none" opacity="1" stroke="none"></path></g></g><g id="svga-group-hair-front"><path id="SvgjsPath15348" d="M59.3 57.3s.5-22.6.5-31c0 0 17.5-2.6 42.2-2.2l.4 2.6 1.4-3 1.4 2.8.8-2.6s13.1.6 18.5.8l.4 4.8 1.4-4.6s8 .4 12.1 1.4l1.4.2s.7 26.9.5 29.8c0 0-4.7-13.3-9.6-14.9-4.8-1.6-21.3 2.4-26.7 4S82 39 78.1 39.2 66 44.6 64.2 47.4c-1.7 2.8-4.9 9.9-4.9 9.9z" fill="#2a232b" stroke-width="none" opacity="1"></path><path id="SvgjsPath15349" d="m140.7 48.8-.2-7.4-.4-14.9v-.2h-.2l-1.4-.2c-2-.5-4-.7-6-.9-2-.2-4-.4-6.1-.5h-.2l-.1.1-1.1 3.7-.3-3.9v-.1h-.1l-9.2-.4-9.2-.5h-.2l-.1.2-.6 2-1.1-2.2-.3-.5-.3.5-1 2.1-.2-1.6v-.3h-.3c-3.5-.1-7.1-.1-10.6-.1s-7.1.2-10.6.3c-3.5.2-7.1.4-10.6.7-3.5.3-7 .7-10.5 1.2h-.3v.3c0 5.2 0 10.3-.1 15.5l-.1 7.8v7.8l.1-.1v-.1l.1-.2.2-.3.3-.7.7-1.4 1.4-2.8 1.5-2.7c.5-.9 1-1.8 1.8-2.5 1.4-1.4 3.2-2.6 4.9-3.7 1.8-1.1 3.6-2 5.5-2.7 1-.3 2-.6 2.9-.5 1 .1 2 .4 3 .7 2 .6 3.9 1.3 5.9 2 3.9 1.4 7.8 2.8 12 3.6 1 .2 2.1.3 3.2.3.5 0 1.1-.1 1.7-.2l1.5-.4 6-1.5c4-.9 8.1-1.7 12.2-2.2 2-.2 4.1-.4 6.1 0 .9.2 1.7.7 2.4 1.4s1.4 1.5 1.9 2.3c2.3 3.4 4 7.2 5.5 11l.8 2.2.1-2.3c-.1-2.8-.2-5.2-.3-7.7zm-7.5-6.5c-.4-.4-.8-.7-1.3-1-.5-.3-1.1-.5-1.6-.6-2.2-.4-4.3-.2-6.4 0-4.2.5-8.2 1.3-12.3 2.2-2 .5-4.1 1-6.1 1.5l-1.5.4c-.5.1-.9.2-1.4.2-1 0-2-.1-3-.2-4-.7-8-2.1-11.9-3.4-2-.7-3.9-1.3-5.9-1.9-1-.3-2-.6-3.1-.7-1.2-.1-2.2.3-3.2.6-2 .7-3.8 1.8-5.6 2.9-1.8 1.1-3.5 2.3-4.9 3.9-.8.8-1.3 1.7-1.8 2.6-.5.9-1 1.8-1.4 2.8l-1.3 2.8-.6 1.4-.3.7-.2.4v.1-1.7l.1-1.9.1-3.9.3-7.8c.1-5 .3-10.1.3-15.2 6.9-.9 13.8-1.4 20.7-1.8 3.5-.2 7-.3 10.6-.4 3.4-.1 6.8-.1 10.3-.1l.4 2.3.2 1 .4-1 1.1-2.5 1.2 2.3.3.6.2-.6.7-2.5 9.1.3 9.1.4.4 4.7.1.9.3-.9 1.4-4.5c2 .1 3.9.3 5.9.5 2 .2 4 .5 6 1l1.2.2.2 14.7.1 7.4v5.1c-1.3-3.2-2.7-6.2-4.7-9.1-.8-.6-1.4-1.4-2.2-2.2zM86.6 26c-.2 2.3-.2 4.6-.1 7 .1 2.3.3 4.6.8 6.9v-3.5c0-1.2 0-2.3-.1-3.5-.1-2.3-.3-4.6-.6-6.9zm49.2 9.5c-.1 2.3-.1 4.6.3 7 .1-1.2.2-2.3.3-3.5.1-1.2.1-2.3.2-3.5.1-2.3.1-4.6-.1-6.9-.5 2.2-.6 4.6-.7 6.9zm-32.6-1.3c-.3 1.4-.3 2.8-.3 4.2.1 1.4.2 2.8.5 4.2.3-1.4.3-2.8.3-4.2-.1-1.4-.2-2.8-.5-4.2zm-40.7-5.9c-.3 1.4-.3 2.8-.3 4.2 0 1.4.2 2.8.5 4.2.3-1.4.3-2.8.3-4.2-.1-1.4-.2-2.8-.5-4.2zm70 6c0 1.4.1 2.8.3 4.2.3-1.4.4-2.8.4-4.2 0-1.4-.1-2.8-.3-4.2-.3 1.5-.4 2.9-.4 4.2zm-3.3-.5c0 1.7 0 3.5.3 5.2.3-1.7.4-3.4.5-5.2 0-1.7 0-3.5-.3-5.2-.4 1.8-.5 3.5-.5 5.2zm-44.5-7.1c-.3 1.4-.3 2.8-.3 4.2.1 1.4.2 2.8.5 4.1.3-1.4.3-2.8.3-4.2-.1-1.3-.2-2.7-.5-4.1z" fill="#1b141c" stroke-width="none" opacity="1"></path></g><g id="svga-group-glasses-single-move" transform="matrix(1,0,0,1,0,0)"><g id="svga-group-glasses-single"><path id="SvgjsPath15171" d="M73.07 77.26c-2.72.89-6.12 4.57-5.51 11.83.61 7.26 4.71 10.02 8.54 11.43 3.83 1.41 9.68 1.28 14.05-2.69 4.37-3.97 5.38-8.54 5.04-11.43-.34-2.89-2.89-7.39-7.06-8.94-4.17-1.55-8.47-2.35-15.06-.2z" fill="url(#SvgjsLinearGradient15172)" opacity="1"></path><path id="SvgjsPath15177" d="M127.66 77.26c2.72.89 6.12 4.57 5.51 11.83s-4.71 10.02-8.54 11.43c-3.83 1.41-9.68 1.28-14.05-2.69-4.37-3.97-5.38-8.54-5.04-11.43.34-2.89 2.89-7.39 7.06-8.94 4.17-1.55 8.47-2.35 15.06-.2z" fill="url(#SvgjsLinearGradient15178)" opacity="1"></path><path id="SvgjsPath15183" d="M119.66 102.16c-4.54 0-9.01-2.42-11.97-6.46-3.39-4.64-4.14-9.63-4.23-10.3.31-.21 1.53-1.13 1.35-2.31-.18-1.2-3.09-1.29-3.97-1.29h-.96c-.88 0-3.79.09-3.97 1.29-.18 1.19 1.04 2.1 1.35 2.31-.09.67-.84 5.66-4.23 10.3-2.96 4.05-7.43 6.46-11.97 6.46-2.19 0-4.42-.54-6.62-1.6-7.34-3.54-7.69-9.66-7.92-13.71-.02-.36-.04-.71-.06-1.03-.26-3.68-2.52-4.06-3.11-4.09V78h.55c2.63 0 5.06-.7 7.63-1.44 2.8-.81 5.69-1.64 9.1-1.64.53 0 1.06.02 1.62.06 4.85.38 7.27 1.96 8.88 3.01.52.34.97.63 1.39.82.65.29 1.53.42 2.77.42.93 0 1.93-.08 2.89-.15.64-.05 1.27-.1 1.85-.12h.68c.57.02 1.2.07 1.84.12.97.07 1.96.15 2.89.15 1.24 0 2.12-.13 2.77-.42.43-.19.87-.48 1.39-.82 1.6-1.05 4.03-2.63 8.88-3.01.55-.04 1.09-.06 1.62-.06 3.41 0 6.31.84 9.1 1.64 2.57.74 5 1.44 7.63 1.44.18 0 .36 0 .54-.01v3.73c-.62.04-2.84.45-3.11 4.09-.02.33-.04.67-.06 1.04-.23 4.05-.58 10.17-7.92 13.71-2.19 1.06-4.42 1.6-6.62 1.6zm1-25.75c-1.69 0-3.45.25-5.23.75-3.85 1.07-7.2 3.91-8.54 7.22-1.21 2.98-.83 6.29 1.09 9.57 2.57 4.38 6.88 6.89 11.83 6.89 3.2 0 6.33-1.07 8.58-2.94 5.16-4.29 5.49-12.86 2.32-17.1-2.05-2.75-5.81-4.39-10.05-4.39zm-40.59 0c-4.24 0-8 1.64-10.05 4.38-3.17 4.24-2.84 12.81 2.32 17.1 2.25 1.87 5.37 2.94 8.58 2.94 4.95 0 9.26-2.51 11.83-6.89 1.92-3.27 2.3-6.58 1.09-9.57-1.34-3.31-4.69-6.14-8.54-7.22-1.78-.48-3.54-.74-5.23-.74z" fill="#26120b" stroke-width="none" opacity="1"></path><path id="SvgjsPath15184" d="M120.1 75.04c3.4 0 6.28.83 9.07 1.64 2.58.75 5.01 1.45 7.66 1.45.14 0 .28 0 .42-.01v3.48c-.75.08-2.85.64-3.11 4.2-.02.33-.04.67-.06 1.04-.23 4.02-.57 10.1-7.85 13.61-2.18 1.05-4.39 1.58-6.57 1.58-4.5 0-8.93-2.4-11.87-6.41-3.27-4.47-4.07-9.27-4.2-10.17.4-.29 1.52-1.2 1.34-2.39-.19-1.26-2.93-1.39-4.09-1.39H99.89c-1.17 0-3.9.14-4.09 1.39-.18 1.19.94 2.1 1.34 2.39-.13.89-.93 5.69-4.2 10.17-2.93 4.01-7.37 6.41-11.87 6.41-2.18 0-4.38-.53-6.57-1.58-7.28-3.51-7.62-9.59-7.85-13.61l-.06-1.04c-.25-3.54-2.33-4.11-3.11-4.2v-3.49c.14 0 .28.01.42.01 2.65 0 5.08-.7 7.66-1.45 2.79-.81 5.67-1.64 9.07-1.64.53 0 1.08.02 1.61.06 4.82.38 7.23 1.95 8.82 2.99.52.34.97.64 1.41.83.67.3 1.56.43 2.82.43.94 0 1.94-.08 2.9-.15.65-.05 1.27-.1 1.83-.12h.68c.58.02 1.19.07 1.84.12.97.07 1.97.15 2.9.15 1.25 0 2.15-.14 2.82-.43.44-.19.89-.49 1.41-.83 1.59-1.04 4-2.61 8.82-2.99.54-.03 1.08-.05 1.61-.05m-.29 25.92c3.23 0 6.39-1.08 8.66-2.97 5.21-4.33 5.55-12.99 2.34-17.27-2.08-2.78-5.87-4.43-10.15-4.43-1.7 0-3.47.25-5.26.75-3.89 1.08-7.27 3.94-8.62 7.29-1.22 3.02-.84 6.37 1.1 9.68 2.58 4.42 6.94 6.95 11.93 6.95m-38.89 0c5 0 9.35-2.53 11.94-6.95 1.94-3.31 2.32-6.66 1.1-9.68-1.35-3.35-4.74-6.21-8.62-7.29-1.79-.5-3.56-.75-5.26-.75-4.28 0-8.07 1.66-10.15 4.43-3.2 4.28-2.87 12.94 2.34 17.27 2.27 1.89 5.42 2.97 8.65 2.97m39.18-26.17c-.53 0-1.07.02-1.63.06-6.41.5-8.56 3.06-10.31 3.84-.71.31-1.66.41-2.71.41-1.55 0-3.29-.21-4.74-.27h-.69c-1.44.06-3.19.27-4.74.27-1.05 0-2.01-.1-2.71-.41-1.75-.78-3.9-3.34-10.31-3.84-.56-.04-1.1-.06-1.63-.06-6.56 0-11.26 3.09-16.73 3.09-.22 0-.44-.01-.67-.02v3.98h.02c.23 0 2.81.09 3.09 3.98.29 4.08 0 10.97 8.06 14.85 2.33 1.12 4.57 1.61 6.67 1.61 5.16 0 9.45-2.93 12.07-6.51 3.69-5.05 4.26-10.43 4.26-10.43s-1.55-.97-1.36-2.23c.17-1.12 3.17-1.18 3.85-1.18h.95c.67 0 3.67.06 3.85 1.18.19 1.26-1.36 2.23-1.36 2.23s.58 5.39 4.26 10.43c2.62 3.59 6.91 6.51 12.07 6.51 2.1 0 4.34-.49 6.67-1.61 8.06-3.88 7.77-10.77 8.06-14.85.28-3.89 2.86-3.98 3.09-3.98h.02v-3.98c-.22.01-.45.02-.67.02-5.47 0-10.16-3.09-16.73-3.09zm-.29 25.92c-4.33 0-8.88-1.98-11.72-6.83-4.95-8.45 1.46-14.95 7.38-16.6 1.84-.51 3.58-.74 5.19-.74 4.53 0 8.06 1.81 9.95 4.33 3.16 4.23 2.84 12.66-2.3 16.93-2.19 1.82-5.29 2.91-8.5 2.91zm-38.89 0c-3.21 0-6.31-1.09-8.5-2.91-5.14-4.27-5.46-12.7-2.3-16.93 1.88-2.52 5.42-4.33 9.95-4.33 1.62 0 3.36.23 5.19.74 5.92 1.65 12.33 8.15 7.38 16.6-2.84 4.85-7.39 6.83-11.72 6.83z" fill="#070201" stroke-width="none" opacity="1"></path></g></g></g></g></g><rect id="svga-credit-rect" width="200" height="15" x="0" y="185" fill="#ecf0f1" opacity="0.5" style="display: none;"></rect><text id="svga-credit-text" font-family="Avenir Next, Roboto, Helvetica, Arial, sans-serif" font-size="10px" text-anchor="start" font-weight="400" size="10px" anchor="start" weight="400" fill="#333333" x="33.40447998046875" y="182.60824704170227" style="display: none;"><tspan id="SvgjsTspan13277" dy="13" x="33.40447998046875">Created on AvatarMaker.com</tspan></text></g><defs id="SvgjsDefs13224"><linearGradient id="SvgjsLinearGradient15113" x1="79.4739" y1="121.3709" x2="79.4739" y2="101.6175" gradientTransform="matrix(1 0 0 -1 0 202)" gradientUnits="userSpaceOnUse" class="svga-on-canvas-glasses-gradient-single-0-null"><stop id="SvgjsStop15114" stop-opacity="1" stop-color="#bfeaf2" offset="0" ></stop><stop id="SvgjsStop15115" stop-opacity="0.649" stop-color="#a1cae3" offset="0.351" ></stop><stop id="SvgjsStop15116" stop-opacity="0" stop-color="#6086c4" offset="1" ></stop></linearGradient><linearGradient id="SvgjsLinearGradient15118" x1="-1738.6592" y1="121.1959" x2="-1738.6592" y2="101.7599" gradientTransform="matrix(-1 0 0 -1 -1618 202)" gradientUnits="userSpaceOnUse" class="svga-on-canvas-glasses-gradient-single-1-null"><stop id="SvgjsStop15119" stop-opacity="1" stop-color="#bfeaf2" offset="0" ></stop><stop id="SvgjsStop15120" stop-opacity="0.649" stop-color="#a1cae3" offset="0.351" ></stop><stop id="SvgjsStop15121" stop-opacity="0" stop-color="#6086c4" offset="1" ></stop></linearGradient><linearGradient id="SvgjsLinearGradient15172" x1="81.3705" y1="75.9478" x2="81.3705" y2="101.3349" gradientUnits="userSpaceOnUse" class="svga-on-canvas-glasses-gradient-single-0-null"><stop id="SvgjsStop15173" stop-opacity="1" stop-color="#9ab4d3" offset="0" ></stop><stop id="SvgjsStop15174" stop-opacity="0.7593" stop-color="#93aed1" offset="0.2407" ></stop><stop id="SvgjsStop15175" stop-opacity="0.4009" stop-color="#7e9ecc" offset="0.5991" ></stop><stop id="SvgjsStop15176" stop-opacity="0" stop-color="#6086c4" offset="1" ></stop></linearGradient><linearGradient id="SvgjsLinearGradient15178" x1="-19.3641" y1="75.9478" x2="-19.3641" y2="101.3349" gradientTransform="matrix(-1 0 0 1 100 0)" gradientUnits="userSpaceOnUse" class="svga-on-canvas-glasses-gradient-single-1-null"><stop id="SvgjsStop15179" stop-opacity="1" stop-color="#9ab4d3" offset="0" ></stop><stop id="SvgjsStop15180" stop-opacity="0.7593" stop-color="#93aed1" offset="0.2407" ></stop><stop id="SvgjsStop15181" stop-opacity="0.4009" stop-color="#7e9ecc" offset="0.5991" ></stop><stop id="SvgjsStop15182" stop-opacity="0" stop-color="#6086c4" offset="1" ></stop></linearGradient></defs></svg>